<?xml version="1.0" encoding="utf-8"?>
<!-- Generator: Adobe Illustrator 27.1.0, SVG Export Plug-In . SVG Version: 6.00 Build 0)  -->
<svg version="1.1" id="Layer_1" xmlns="http://www.w3.org/2000/svg" xmlns:xlink="http://www.w3.org/1999/xlink" x="0px" y="0px"
	 viewBox="0 0 652 539" style="enable-background:new 0 0 652 539;" xml:space="preserve">
<style type="text/css">
	.st0{fill:#1D1D1B;}
	.st1{fill:none;stroke:#1D1D1B;stroke-width:5;stroke-linecap:round;stroke-linejoin:round;stroke-miterlimit:10;}
	.st2{fill:url(#SVGID_1_);}
	.st3{fill:url(#SVGID_00000093149685462809101950000013666316401648822955_);}
	.st4{fill:url(#SVGID_00000038396882591509071150000011558227860783722138_);}
	.st5{fill:url(#SVGID_00000089559854147367576640000001410536838173046193_);}
	.st6{fill:url(#SVGID_00000114774806521750821010000000632812237618634935_);}
	.st7{fill:url(#SVGID_00000103258340770515994910000018345806881111786135_);}
	.st8{fill:url(#SVGID_00000096036275331652341420000015066003060233628350_);}
	.st9{fill:url(#SVGID_00000022522373145937691090000008454655981582432647_);}
</style>
<g>
	<g>
		<path class="st0" d="M422.053,46.397c0.026,1.313,0.053,2.627,0.079,3.94c3.402-0.723,6.547,2.303,7.823,5.539
			c1.275,3.236,1.41,6.843,2.763,10.047c2.607,6.175,9.229,9.814,12.31,15.768c3.026,5.848,2.13,13.003-0.146,19.182
			c-2.276,6.179-5.815,11.831-8.099,18.007c-0.712,1.926-1.289,4.119-0.418,5.979c1.564,3.337,6.781,3.09,9.447,0.546
			c2.666-2.544,3.589-6.347,4.855-9.808c1.134-3.099,3.823-6.622,6.95-5.568c1.974,0.665,2.905,2.856,3.711,4.777
			c2.368,5.643,5.613,10.91,7.619,16.691c2.005,5.782,2.648,12.422-0.184,17.846c-2.832,5.425-9.965,8.814-15.402,6.007
			c-3.211,7.257,1.709,16.563-2.452,23.32c-3.494,5.675-11.563,6.504-16.291,11.201c-4.843,4.812-5.164,12.523-8.644,18.396
			c-2.019,3.409-5.051,6.104-7.283,9.377c-7.913,11.604-4.246,27.212-0.289,40.688c0.316,1.078,0.663,2.206,1.467,2.989
			c2.49,2.423,6.854-0.604,7.47-4.024c0.617-3.42-0.758-6.896-0.617-10.368c0.293-7.189,8.308-12.957,15.218-10.95
			c1.48,0.43,2.924,1.192,3.825,2.443c0.884,1.227,1.154,2.782,1.355,4.281c1.769,13.218-0.036,26.898-5.176,39.204
			c7.187,2.32,15.735-3.852,15.794-11.404c0.042-5.422-3.532-10.665-2.343-15.955c0.506-2.25,1.831-4.216,3.136-6.117
			c8.501-12.388,17.264-24.596,26.282-36.613c1.821-2.426,4.579-5.14,7.407-4.042c-0.125,5.309-0.685,10.607-1.671,15.825
			c3.362-6.74,5.322-14.176,5.719-21.698c0.15-2.849,0.112-5.841,1.459-8.356c1.347-2.515,4.691-4.242,7.124-2.753
			c-0.93,7.166,0,14.566,2.674,21.279c2.141,5.376,5.439,11.117,3.479,16.561c-1.787,4.963-7.746,9.237-5.709,14.103
			c1.145,2.736,4.574,3.907,7.5,3.42c2.925-0.487,5.462-2.236,7.89-3.939c6.314,4.587,13.345,10.691,12.497,18.449
			c-0.236,2.162-1.103,4.238-1.155,6.412c-0.052,2.175,1.1,4.658,3.244,5.022c1.735,0.294,3.362-0.894,4.578-2.166
			c3.028-3.166,5.011-7.315,5.573-11.659c0.513-3.965,0.2-8.73,3.427-11.09c4.568-3.34,10.516,1.666,13.841,6.245
			c3.325,4.579,8.968,9.78,13.751,6.757c1.225-0.774,2.096-1.988,2.912-3.186c2.165-3.178,4.255-6.863,3.588-10.65
			c-0.408-2.314-1.799-4.313-3.086-6.279c-5.624-8.592-9.901-18.155-11.758-28.255c-1.736-9.439-1.578-19.838-7.356-27.501
			c-4.475-5.934-12.562-10.796-11.569-18.162c0.168-1.248,0.612-2.525,0.263-3.735c-0.301-1.043-1.134-1.827-1.823-2.666
			c-4.147-5.052-3.24-12.444-1.802-18.82c0.878-3.889,2.007-7.988,4.956-10.671s8.303-3.071,10.54,0.23
			c1.946,2.871,0.688,6.693,0.089,10.109c-0.6,3.416,0.432,8.011,3.878,8.402c2.969,0.337,5.076-2.812,6.066-5.631
			c1.377-3.92,2.063-8.127,1.607-12.257c-0.629-5.704-3.395-11.14-3.119-16.871c0.303-6.315,4.214-11.805,7.974-16.888
			c2.166-2.929,4.333-5.858,6.499-8.787c1.545-2.089,3.426-4.37,6.019-4.533c3.006-0.189,5.454,2.783,5.81,5.773
			c0.357,2.991-0.8,5.932-1.934,8.722c5.285,0.877,10.284-3.615,11.808-8.751c1.524-5.136,0.429-10.651-0.875-15.847
			c-0.761-3.03-1.486-6.584,0.495-9c0.958-1.169,2.386-1.825,3.742-2.493c3.007-1.48,5.99-3.279,7.916-6.023
			s2.548-6.635,0.717-9.441c-9.217-0.679-18.539,0.076-27.526,2.23c-0.698-1.933-1.396-3.866-2.094-5.799
			c-2.676,2.753-7.93,5.201-9.57,1.73c-1.418,3.198-6.086,4.359-8.837,2.199c-1.235,1.323-2.47,2.646-3.705,3.969
			c-0.713-1.975-3.388-2.933-5.192-1.86c-1.494-3.802-5.836-6.253-9.862-5.567c-2.857,1.343-0.118,5.416,1.002,8.368
			c1.442,3.801-0.921,8.197-4.332,10.409c-3.411,2.212-7.602,2.764-11.637,3.261c1.172,3.391,2.353,7.075,1.26,10.492
			c-1.093,3.417-5.578,5.886-8.398,3.668c-3.309,3.257-6.618,6.513-9.928,9.77c-1.886,1.856-4.548,3.857-6.91,2.663
			c-3.304-1.671-1.513-6.55-0.757-10.175c1.317-6.316-2.973-13.282-9.205-14.949c1.129-2.948-0.861-6.094-2.751-8.623
			c-3.409-4.562-6.818-9.125-10.226-13.687c-0.576-0.771-1.175-1.563-2.009-2.045c-3.518-2.033-8.004,2.635-11.767,1.105
			c-1.083-0.44-1.978-1.371-3.139-1.511c-3.375-0.408-4.572,5.665-7.97,5.583c-1.663-0.041-2.852-1.609-4.395-2.229
			c-1.258-0.505-2.671-0.35-4.017-0.186c-3.418,0.416-6.835,0.831-10.253,1.247c-7.9,0.961-16.161,1.882-23.613-0.912
			L422.053,46.397z"/>
		<path class="st1" d="M422.053,46.397c0.026,1.313,0.053,2.627,0.079,3.94c3.402-0.723,6.547,2.303,7.823,5.539
			c1.275,3.236,1.41,6.843,2.763,10.047c2.607,6.175,9.229,9.814,12.31,15.768c3.026,5.848,2.13,13.003-0.146,19.182
			c-2.276,6.179-5.815,11.831-8.099,18.007c-0.712,1.926-1.289,4.119-0.418,5.979c1.564,3.337,6.781,3.09,9.447,0.546
			c2.666-2.544,3.589-6.347,4.855-9.808c1.134-3.099,3.823-6.622,6.95-5.568c1.974,0.665,2.905,2.856,3.711,4.777
			c2.368,5.643,5.613,10.91,7.619,16.691c2.005,5.782,2.648,12.422-0.184,17.846c-2.832,5.425-9.965,8.814-15.402,6.007
			c-3.211,7.257,1.709,16.563-2.452,23.32c-3.494,5.675-11.563,6.504-16.291,11.201c-4.843,4.812-5.164,12.523-8.644,18.396
			c-2.019,3.409-5.051,6.104-7.283,9.377c-7.913,11.604-4.246,27.212-0.289,40.688c0.316,1.078,0.663,2.206,1.467,2.989
			c2.49,2.423,6.854-0.604,7.47-4.024c0.617-3.42-0.758-6.896-0.617-10.368c0.293-7.189,8.308-12.957,15.218-10.95
			c1.48,0.43,2.924,1.192,3.825,2.443c0.884,1.227,1.154,2.782,1.355,4.281c1.769,13.218-0.036,26.898-5.176,39.204
			c7.187,2.32,15.735-3.852,15.794-11.404c0.042-5.422-3.532-10.665-2.343-15.955c0.506-2.25,1.831-4.216,3.136-6.117
			c8.501-12.388,17.264-24.596,26.282-36.613c1.821-2.426,4.579-5.14,7.407-4.042c-0.125,5.309-0.685,10.607-1.671,15.825
			c3.362-6.74,5.322-14.176,5.719-21.698c0.15-2.849,0.112-5.841,1.459-8.356c1.347-2.515,4.691-4.242,7.124-2.753
			c-0.93,7.166,0,14.566,2.674,21.279c2.141,5.376,5.439,11.117,3.479,16.561c-1.787,4.963-7.746,9.237-5.709,14.103
			c1.145,2.736,4.574,3.907,7.5,3.42c2.925-0.487,5.462-2.236,7.89-3.939c6.314,4.587,13.345,10.691,12.497,18.449
			c-0.236,2.162-1.103,4.238-1.155,6.412c-0.052,2.175,1.1,4.658,3.244,5.022c1.735,0.294,3.362-0.894,4.578-2.166
			c3.028-3.166,5.011-7.315,5.573-11.659c0.513-3.965,0.2-8.73,3.427-11.09c4.568-3.34,10.516,1.666,13.841,6.245
			c3.325,4.579,8.968,9.78,13.751,6.757c1.225-0.774,2.096-1.988,2.912-3.186c2.165-3.178,4.255-6.863,3.588-10.65
			c-0.408-2.314-1.799-4.313-3.086-6.279c-5.624-8.592-9.901-18.155-11.758-28.255c-1.736-9.439-1.578-19.838-7.356-27.501
			c-4.475-5.934-12.562-10.796-11.569-18.162c0.168-1.248,0.612-2.525,0.263-3.735c-0.301-1.043-1.134-1.827-1.823-2.666
			c-4.147-5.052-3.24-12.444-1.802-18.82c0.878-3.889,2.007-7.988,4.956-10.671s8.303-3.071,10.54,0.23
			c1.946,2.871,0.688,6.693,0.089,10.109c-0.6,3.416,0.432,8.011,3.878,8.402c2.969,0.337,5.076-2.812,6.066-5.631
			c1.377-3.92,2.063-8.127,1.607-12.257c-0.629-5.704-3.395-11.14-3.119-16.871c0.303-6.315,4.214-11.805,7.974-16.888
			c2.166-2.929,4.333-5.858,6.499-8.787c1.545-2.089,3.426-4.37,6.019-4.533c3.006-0.189,5.454,2.783,5.81,5.773
			c0.357,2.991-0.8,5.932-1.934,8.722c5.285,0.877,10.284-3.615,11.808-8.751c1.524-5.136,0.429-10.651-0.875-15.847
			c-0.761-3.03-1.486-6.584,0.495-9c0.958-1.169,2.386-1.825,3.742-2.493c3.007-1.48,5.99-3.279,7.916-6.023
			s2.548-6.635,0.717-9.441c-9.217-0.679-18.539,0.076-27.526,2.23c-0.698-1.933-1.396-3.866-2.094-5.799
			c-2.676,2.753-7.93,5.201-9.57,1.73c-1.418,3.198-6.086,4.359-8.837,2.199c-1.235,1.323-2.47,2.646-3.705,3.969
			c-0.713-1.975-3.388-2.933-5.192-1.86c-1.494-3.802-5.836-6.253-9.862-5.567c-2.857,1.343-0.118,5.416,1.002,8.368
			c1.442,3.801-0.921,8.197-4.332,10.409c-3.411,2.212-7.602,2.764-11.637,3.261c1.172,3.391,2.353,7.075,1.26,10.492
			c-1.093,3.417-5.578,5.886-8.398,3.668c-3.309,3.257-6.618,6.513-9.928,9.77c-1.886,1.856-4.548,3.857-6.91,2.663
			c-3.304-1.671-1.513-6.55-0.757-10.175c1.317-6.316-2.973-13.282-9.205-14.949c1.129-2.948-0.861-6.094-2.751-8.623
			c-3.409-4.562-6.818-9.125-10.226-13.687c-0.576-0.771-1.175-1.563-2.009-2.045c-3.518-2.033-8.004,2.635-11.767,1.105
			c-1.083-0.44-1.978-1.371-3.139-1.511c-3.375-0.408-4.572,5.665-7.97,5.583c-1.663-0.041-2.852-1.609-4.395-2.229
			c-1.258-0.505-2.671-0.35-4.017-0.186c-3.418,0.416-6.835,0.831-10.253,1.247c-7.9,0.961-16.161,1.882-23.613-0.912
			L422.053,46.397z"/>
	</g>
	<g>
		<linearGradient id="SVGID_1_" gradientUnits="userSpaceOnUse" x1="516.5506" y1="32.029" x2="516.5506" y2="397.9371">
			<stop  offset="6.260948e-04" style="stop-color:#85A0F2"/>
			<stop  offset="0.5" style="stop-color:#683FBF"/>
			<stop  offset="1" style="stop-color:#7C53CF"/>
		</linearGradient>
		<path class="st2" d="M422.053,16.397c0.026,1.313,0.053,2.627,0.079,3.94c3.402-0.723,6.547,2.303,7.823,5.539
			s1.41,6.843,2.763,10.047c2.607,6.175,9.229,9.814,12.31,15.768c3.026,5.848,2.13,13.003-0.146,19.182
			c-2.276,6.179-5.815,11.831-8.099,18.007c-0.712,1.926-1.289,4.119-0.418,5.979c1.564,3.337,6.781,3.09,9.447,0.546
			c2.666-2.544,3.589-6.347,4.855-9.808c1.134-3.099,3.823-6.622,6.95-5.568c1.974,0.665,2.905,2.856,3.711,4.777
			c2.368,5.643,5.613,10.91,7.619,16.691c2.005,5.782,2.648,12.422-0.184,17.846c-2.832,5.425-9.965,8.814-15.402,6.007
			c-3.211,7.257,1.709,16.563-2.452,23.32c-3.494,5.675-11.563,6.504-16.291,11.201c-4.843,4.812-5.164,12.523-8.644,18.396
			c-2.019,3.409-5.051,6.104-7.283,9.377c-7.913,11.604-4.246,27.212-0.289,40.688c0.316,1.078,0.663,2.206,1.467,2.989
			c2.49,2.423,6.854-0.604,7.47-4.024c0.617-3.42-0.758-6.896-0.617-10.368c0.293-7.189,8.308-12.957,15.218-10.95
			c1.48,0.43,2.924,1.192,3.825,2.443c0.884,1.227,1.154,2.782,1.355,4.281c1.769,13.218-0.036,26.898-5.176,39.204
			c7.187,2.32,15.735-3.852,15.794-11.404c0.042-5.422-3.532-10.665-2.343-15.955c0.506-2.25,1.831-4.216,3.136-6.117
			c8.501-12.388,17.264-24.596,26.282-36.613c1.821-2.426,4.579-5.14,7.407-4.042c-0.125,5.309-0.685,10.607-1.671,15.825
			c3.362-6.74,5.322-14.176,5.719-21.698c0.15-2.849,0.112-5.841,1.459-8.356c1.347-2.515,4.691-4.242,7.124-2.753
			c-0.93,7.166,0,14.566,2.674,21.279c2.141,5.376,5.439,11.117,3.479,16.561c-1.787,4.963-7.746,9.237-5.709,14.103
			c1.145,2.736,4.574,3.907,7.5,3.42c2.925-0.487,5.462-2.236,7.89-3.939c6.314,4.587,13.345,10.691,12.497,18.449
			c-0.236,2.162-1.103,4.238-1.155,6.412s1.1,4.658,3.244,5.022c1.735,0.294,3.362-0.894,4.578-2.166
			c3.028-3.166,5.011-7.314,5.573-11.659c0.513-3.965,0.2-8.73,3.427-11.09c4.568-3.34,10.516,1.666,13.841,6.245
			c3.325,4.579,8.968,9.78,13.751,6.757c1.225-0.774,2.096-1.988,2.912-3.186c2.165-3.178,4.255-6.863,3.588-10.65
			c-0.408-2.314-1.799-4.313-3.086-6.279c-5.624-8.592-9.901-18.155-11.758-28.255c-1.736-9.439-1.578-19.838-7.356-27.501
			c-4.475-5.934-12.562-10.796-11.569-18.162c0.168-1.248,0.612-2.525,0.263-3.735c-0.301-1.043-1.134-1.827-1.823-2.666
			c-4.147-5.052-3.24-12.444-1.802-18.82c0.878-3.889,2.007-7.988,4.956-10.671s8.303-3.071,10.54,0.23
			c1.946,2.871,0.688,6.693,0.089,10.109c-0.6,3.416,0.432,8.011,3.878,8.402c2.969,0.337,5.076-2.812,6.066-5.631
			c1.377-3.92,2.063-8.127,1.607-12.257c-0.629-5.704-3.395-11.14-3.119-16.871c0.303-6.315,4.214-11.805,7.974-16.888
			c2.166-2.929,4.333-5.858,6.499-8.787c1.545-2.089,3.426-4.37,6.019-4.533c3.006-0.189,5.454,2.783,5.81,5.773
			c0.357,2.991-0.8,5.932-1.934,8.722c5.285,0.877,10.284-3.615,11.808-8.751s0.429-10.651-0.875-15.847
			c-0.761-3.03-1.486-6.584,0.495-9c0.958-1.169,2.386-1.825,3.742-2.493c3.007-1.48,5.99-3.279,7.916-6.023
			s2.548-6.635,0.717-9.441c-9.217-0.679-18.539,0.076-27.526,2.23c-0.698-1.933-1.396-3.866-2.094-5.799
			c-2.676,2.753-7.93,5.201-9.57,1.73c-1.418,3.198-6.086,4.359-8.837,2.199c-1.235,1.323-2.47,2.646-3.705,3.969
			c-0.713-1.975-3.388-2.933-5.192-1.86c-1.494-3.802-5.836-6.253-9.862-5.567c-2.857,1.343-0.118,5.416,1.002,8.368
			c1.442,3.801-0.921,8.197-4.332,10.409s-7.602,2.764-11.637,3.261c1.172,3.391,2.353,7.075,1.26,10.492
			c-1.093,3.417-5.578,5.886-8.398,3.668c-3.309,3.257-6.618,6.513-9.928,9.77c-1.886,1.856-4.548,3.857-6.91,2.663
			c-3.304-1.671-1.513-6.55-0.757-10.175c1.317-6.316-2.973-13.282-9.205-14.949c1.129-2.948-0.861-6.094-2.751-8.623
			c-3.409-4.562-6.818-9.125-10.226-13.687c-0.576-0.771-1.175-1.563-2.009-2.045c-3.518-2.033-8.004,2.635-11.767,1.105
			c-1.083-0.44-1.978-1.371-3.139-1.511c-3.375-0.408-4.572,5.665-7.97,5.583c-1.663-0.041-2.852-1.609-4.395-2.229
			c-1.258-0.505-2.671-0.35-4.017-0.186c-3.418,0.416-6.835,0.831-10.253,1.247c-7.9,0.961-16.161,1.882-23.613-0.912
			L422.053,16.397z"/>
		<path class="st1" d="M422.053,16.397c0.026,1.313,0.053,2.627,0.079,3.94c3.402-0.723,6.547,2.303,7.823,5.539
			s1.41,6.843,2.763,10.047c2.607,6.175,9.229,9.814,12.31,15.768c3.026,5.848,2.13,13.003-0.146,19.182
			c-2.276,6.179-5.815,11.831-8.099,18.007c-0.712,1.926-1.289,4.119-0.418,5.979c1.564,3.337,6.781,3.09,9.447,0.546
			c2.666-2.544,3.589-6.347,4.855-9.808c1.134-3.099,3.823-6.622,6.95-5.568c1.974,0.665,2.905,2.856,3.711,4.777
			c2.368,5.643,5.613,10.91,7.619,16.691c2.005,5.782,2.648,12.422-0.184,17.846c-2.832,5.425-9.965,8.814-15.402,6.007
			c-3.211,7.257,1.709,16.563-2.452,23.32c-3.494,5.675-11.563,6.504-16.291,11.201c-4.843,4.812-5.164,12.523-8.644,18.396
			c-2.019,3.409-5.051,6.104-7.283,9.377c-7.913,11.604-4.246,27.212-0.289,40.688c0.316,1.078,0.663,2.206,1.467,2.989
			c2.49,2.423,6.854-0.604,7.47-4.024c0.617-3.42-0.758-6.896-0.617-10.368c0.293-7.189,8.308-12.957,15.218-10.95
			c1.48,0.43,2.924,1.192,3.825,2.443c0.884,1.227,1.154,2.782,1.355,4.281c1.769,13.218-0.036,26.898-5.176,39.204
			c7.187,2.32,15.735-3.852,15.794-11.404c0.042-5.422-3.532-10.665-2.343-15.955c0.506-2.25,1.831-4.216,3.136-6.117
			c8.501-12.388,17.264-24.596,26.282-36.613c1.821-2.426,4.579-5.14,7.407-4.042c-0.125,5.309-0.685,10.607-1.671,15.825
			c3.362-6.74,5.322-14.176,5.719-21.698c0.15-2.849,0.112-5.841,1.459-8.356c1.347-2.515,4.691-4.242,7.124-2.753
			c-0.93,7.166,0,14.566,2.674,21.279c2.141,5.376,5.439,11.117,3.479,16.561c-1.787,4.963-7.746,9.237-5.709,14.103
			c1.145,2.736,4.574,3.907,7.5,3.42c2.925-0.487,5.462-2.236,7.89-3.939c6.314,4.587,13.345,10.691,12.497,18.449
			c-0.236,2.162-1.103,4.238-1.155,6.412s1.1,4.658,3.244,5.022c1.735,0.294,3.362-0.894,4.578-2.166
			c3.028-3.166,5.011-7.314,5.573-11.659c0.513-3.965,0.2-8.73,3.427-11.09c4.568-3.34,10.516,1.666,13.841,6.245
			c3.325,4.579,8.968,9.78,13.751,6.757c1.225-0.774,2.096-1.988,2.912-3.186c2.165-3.178,4.255-6.863,3.588-10.65
			c-0.408-2.314-1.799-4.313-3.086-6.279c-5.624-8.592-9.901-18.155-11.758-28.255c-1.736-9.439-1.578-19.838-7.356-27.501
			c-4.475-5.934-12.562-10.796-11.569-18.162c0.168-1.248,0.612-2.525,0.263-3.735c-0.301-1.043-1.134-1.827-1.823-2.666
			c-4.147-5.052-3.24-12.444-1.802-18.82c0.878-3.889,2.007-7.988,4.956-10.671s8.303-3.071,10.54,0.23
			c1.946,2.871,0.688,6.693,0.089,10.109c-0.6,3.416,0.432,8.011,3.878,8.402c2.969,0.337,5.076-2.812,6.066-5.631
			c1.377-3.92,2.063-8.127,1.607-12.257c-0.629-5.704-3.395-11.14-3.119-16.871c0.303-6.315,4.214-11.805,7.974-16.888
			c2.166-2.929,4.333-5.858,6.499-8.787c1.545-2.089,3.426-4.37,6.019-4.533c3.006-0.189,5.454,2.783,5.81,5.773
			c0.357,2.991-0.8,5.932-1.934,8.722c5.285,0.877,10.284-3.615,11.808-8.751s0.429-10.651-0.875-15.847
			c-0.761-3.03-1.486-6.584,0.495-9c0.958-1.169,2.386-1.825,3.742-2.493c3.007-1.48,5.99-3.279,7.916-6.023
			s2.548-6.635,0.717-9.441c-9.217-0.679-18.539,0.076-27.526,2.23c-0.698-1.933-1.396-3.866-2.094-5.799
			c-2.676,2.753-7.93,5.201-9.57,1.73c-1.418,3.198-6.086,4.359-8.837,2.199c-1.235,1.323-2.47,2.646-3.705,3.969
			c-0.713-1.975-3.388-2.933-5.192-1.86c-1.494-3.802-5.836-6.253-9.862-5.567c-2.857,1.343-0.118,5.416,1.002,8.368
			c1.442,3.801-0.921,8.197-4.332,10.409s-7.602,2.764-11.637,3.261c1.172,3.391,2.353,7.075,1.26,10.492
			c-1.093,3.417-5.578,5.886-8.398,3.668c-3.309,3.257-6.618,6.513-9.928,9.77c-1.886,1.856-4.548,3.857-6.91,2.663
			c-3.304-1.671-1.513-6.55-0.757-10.175c1.317-6.316-2.973-13.282-9.205-14.949c1.129-2.948-0.861-6.094-2.751-8.623
			c-3.409-4.562-6.818-9.125-10.226-13.687c-0.576-0.771-1.175-1.563-2.009-2.045c-3.518-2.033-8.004,2.635-11.767,1.105
			c-1.083-0.44-1.978-1.371-3.139-1.511c-3.375-0.408-4.572,5.665-7.97,5.583c-1.663-0.041-2.852-1.609-4.395-2.229
			c-1.258-0.505-2.671-0.35-4.017-0.186c-3.418,0.416-6.835,0.831-10.253,1.247c-7.9,0.961-16.161,1.882-23.613-0.912
			L422.053,16.397z"/>
	</g>
</g>
<g>
	<g>
		<path class="st0" d="M452.327,235.562c-0.451-5.579-0.902-11.159-1.352-16.738c-0.418-5.181-0.86-10.461-2.86-15.259
			c-1.587-3.808-4.107-7.181-5.598-11.028c-3.839-9.904-0.44-21.675-5.008-31.265c-1.62-3.401-4.265-6.938-3.132-10.531
			c0.464-1.472,1.556-2.82,1.412-4.357c-0.198-2.114-2.502-3.23-4.347-4.282c-5.296-3.019-8.946-8.749-9.443-14.825
			c-0.324-3.966,0.611-7.926,0.665-11.905c0.054-3.979-1.036-8.357-4.315-10.611c-1.383-0.95-3.248-1.689-3.558-3.338
			c-0.249-1.323,0.668-2.541,1.231-3.764c1.148-2.493,0.788-5.613-0.897-7.779c-1.644-2.114-4.475-3.488-5.036-6.106
			c-0.47-2.197,0.896-4.518,0.275-6.677c-0.724-2.518-3.687-3.557-5.425-5.517c-5.479-6.181,3.065-17.873-2.892-23.596
			c-2.275-2.185-5.754-2.363-8.908-2.413c-3.841-0.061-7.681-0.123-11.522-0.184c-3.241-0.052-7.207,0.327-8.548,3.278
			c-0.934-2.835-3.477-6.359-6.05-4.846c-1.025,0.602-1.494,1.834-2.378,2.63c-4.345,3.916-11.354-5.769-16.215-2.516
			c-2.262,1.514-3.603,5.587-6.123,4.557c-0.756-0.309-1.235-1.039-1.751-1.671c-1.492-1.826-3.65-3.079-5.96-3.553
			c-7.523-1.543-14.207,4.826-18.806,10.975c-1.046,1.398-2.104,2.914-2.235,4.654c-0.205,2.706,1.83,4.993,2.905,7.484
			c2.646,6.128-0.656,13.132-4.458,18.618s-8.382,11.099-8.502,17.773c-0.047,2.603,0.524,5.523-1.093,7.563
			c-0.748,0.943-1.851,1.519-2.832,2.216c-5.027,3.575-6.725,10.328-6.632,16.496c0.092,6.168,1.59,12.277,1.345,18.441
			c-0.495,12.451-7.916,23.416-15.068,33.62c-0.655,0.934-1.31,1.869-1.965,2.803c-3.293,4.698-6.37,11.754-2,15.472
			c1.247,1.061,3.048,1.745,3.476,3.326c0.269,0.992-0.117,2.031-0.496,2.986c-2.83,7.127-5.931,11.633-8.76,18.76
			c-1.93,4.303-2.61,9.158-1.936,13.825c0.427,2.957,2.078,6.396,5.064,6.483c4.313,0.126,5.162-6.002,7.689-9.5
			c3.16-4.374,9.48-4.589,14.872-4.379c1.135,0.044,2.34,0.111,3.269,0.764c0.905,0.636,1.384,1.726,1.62,2.806
			c1.147,5.244-2.414,10.196-5.199,14.784c-2.785,4.589-4.768,10.989-1.109,14.917c0.574,0.616,1.29,1.139,2.117,1.297
			c2.948,0.562,4.532-3.225,5.479-6.073c3.56-10.71,13.252-18.01,19.837-27.176c6.326-8.806,9.81-19.62,9.816-30.463
			c4.469-0.787,8.988-1.29,13.521-1.504c2.334-0.11,5.064,0.042,6.414,1.949c0.87,1.228,0.89,2.841,0.937,4.345
			c0.111,3.574,0.688,7.424,3.202,9.967c2.514,2.543,7.528,2.737,9.21-0.418c1.576-2.956-0.459-7.007,1.409-9.788
			c4.151,1.633,9.108,3.199,12.816,0.719c3.827-2.56,4.911-8.682,9.392-9.741c2.904,5.061,5.807,10.123,8.711,15.184
			c0.824,1.437,1.659,2.901,2.023,4.517c0.748,3.325-0.539,7.076,1.093,10.069c1.105,2.027,3.291,3.18,4.929,4.807
			c3.022,3.004,4.031,7.453,6.328,11.042c2.298,3.589,7.392,6.311,10.705,3.632c2.91-2.354,2.204-6.867,1.476-10.538
			c-0.728-3.671-0.635-8.48,2.808-9.95c1.33-0.568,2.877-0.433,4.238,0.056c6.911,2.486,7.855,11.897,6.474,19.111
			c-1.381,7.214-3.68,15.371,0.567,21.364c6.369-3.446,12.16-8.69,14.345-15.595C453.144,246.032,452.743,240.72,452.327,235.562z
			 M379.088,164.425c-1.08,2.765-4.869,3.587-7.602,2.43c-2.734-1.157-4.616-3.671-6.296-6.119c-1.331-1.94-3.338-4.182-5.572-3.443
			c-1.03,0.341-1.744,1.25-2.561,1.964c-2.789,2.437-7.355,2.507-10.218,0.157l-2.253-1.37c-1.908-3.443-1.623-7.982,0.699-11.159
			c0.619-0.847,1.379-1.622,1.733-2.609c0.982-2.732-1.492-5.828-0.491-8.553c0.25-0.681,0.7-1.268,1.019-1.919
			c0.618-1.263,0.72-2.704,0.895-4.099c0.493-3.934,1.651-7.785,3.409-11.339c0.964-1.949,2.15-3.858,3.895-5.155
			c1.745-1.298,4.149-1.882,6.143-1.016c1.836,0.797,2.991,2.616,3.921,4.388c1.242,2.366,2.288,4.835,3.122,7.374
			c1.448,4.403,2.254,8.987,3.055,13.552c0.655,3.731,1.31,7.461,1.965,11.192c0.334,1.905,0.677,3.836,1.501,5.586
			C377.042,157.656,380.444,160.955,379.088,164.425z"/>
		<path class="st1" d="M452.327,235.562c-0.451-5.579-0.902-11.159-1.352-16.738c-0.418-5.181-0.86-10.461-2.86-15.259
			c-1.587-3.808-4.107-7.181-5.598-11.028c-3.839-9.904-0.44-21.675-5.008-31.265c-1.62-3.401-4.265-6.938-3.132-10.531
			c0.464-1.472,1.556-2.82,1.412-4.357c-0.198-2.114-2.502-3.23-4.347-4.282c-5.296-3.019-8.946-8.749-9.443-14.825
			c-0.324-3.966,0.611-7.926,0.665-11.905c0.054-3.979-1.036-8.357-4.315-10.611c-1.383-0.95-3.248-1.689-3.558-3.338
			c-0.249-1.323,0.668-2.541,1.231-3.764c1.148-2.493,0.788-5.613-0.897-7.779c-1.644-2.114-4.475-3.488-5.036-6.106
			c-0.47-2.197,0.896-4.518,0.275-6.677c-0.724-2.518-3.687-3.557-5.425-5.517c-5.479-6.181,3.065-17.873-2.892-23.596
			c-2.275-2.185-5.754-2.363-8.908-2.413c-3.841-0.061-7.681-0.123-11.522-0.184c-3.241-0.052-7.207,0.327-8.548,3.278
			c-0.934-2.835-3.477-6.359-6.05-4.846c-1.025,0.602-1.494,1.834-2.378,2.63c-4.345,3.916-11.354-5.769-16.215-2.516
			c-2.262,1.514-3.603,5.587-6.123,4.557c-0.756-0.309-1.235-1.039-1.751-1.671c-1.492-1.826-3.65-3.079-5.96-3.553
			c-7.523-1.543-14.207,4.826-18.806,10.975c-1.046,1.398-2.104,2.914-2.235,4.654c-0.205,2.706,1.83,4.993,2.905,7.484
			c2.646,6.128-0.656,13.132-4.458,18.618s-8.382,11.099-8.502,17.773c-0.047,2.603,0.524,5.523-1.093,7.563
			c-0.748,0.943-1.851,1.519-2.832,2.216c-5.027,3.575-6.725,10.328-6.632,16.496c0.092,6.168,1.59,12.277,1.345,18.441
			c-0.495,12.451-7.916,23.416-15.068,33.62c-0.655,0.934-1.31,1.869-1.965,2.803c-3.293,4.698-6.37,11.754-2,15.472
			c1.247,1.061,3.048,1.745,3.476,3.326c0.269,0.992-0.117,2.031-0.496,2.986c-2.83,7.127-5.931,11.633-8.76,18.76
			c-1.93,4.303-2.61,9.158-1.936,13.825c0.427,2.957,2.078,6.396,5.064,6.483c4.313,0.126,5.162-6.002,7.689-9.5
			c3.16-4.374,9.48-4.589,14.872-4.379c1.135,0.044,2.34,0.111,3.269,0.764c0.905,0.636,1.384,1.726,1.62,2.806
			c1.147,5.244-2.414,10.196-5.199,14.784c-2.785,4.589-4.768,10.989-1.109,14.917c0.574,0.616,1.29,1.139,2.117,1.297
			c2.948,0.562,4.532-3.225,5.479-6.073c3.56-10.71,13.252-18.01,19.837-27.176c6.326-8.806,9.81-19.62,9.816-30.463
			c4.469-0.787,8.988-1.29,13.521-1.504c2.334-0.11,5.064,0.042,6.414,1.949c0.87,1.228,0.89,2.841,0.937,4.345
			c0.111,3.574,0.688,7.424,3.202,9.967c2.514,2.543,7.528,2.737,9.21-0.418c1.576-2.956-0.459-7.007,1.409-9.788
			c4.151,1.633,9.108,3.199,12.816,0.719c3.827-2.56,4.911-8.682,9.392-9.741c2.904,5.061,5.807,10.123,8.711,15.184
			c0.824,1.437,1.659,2.901,2.023,4.517c0.748,3.325-0.539,7.076,1.093,10.069c1.105,2.027,3.291,3.18,4.929,4.807
			c3.022,3.004,4.031,7.453,6.328,11.042c2.298,3.589,7.392,6.311,10.705,3.632c2.91-2.354,2.204-6.867,1.476-10.538
			c-0.728-3.671-0.635-8.48,2.808-9.95c1.33-0.568,2.877-0.433,4.238,0.056c6.911,2.486,7.855,11.897,6.474,19.111
			c-1.381,7.214-3.68,15.371,0.567,21.364c6.369-3.446,12.16-8.69,14.345-15.595C453.144,246.032,452.743,240.72,452.327,235.562z
			 M379.088,164.425c-1.08,2.765-4.869,3.587-7.602,2.43c-2.734-1.157-4.616-3.671-6.296-6.119c-1.331-1.94-3.338-4.182-5.572-3.443
			c-1.03,0.341-1.744,1.25-2.561,1.964c-2.789,2.437-7.355,2.507-10.218,0.157l-2.253-1.37c-1.908-3.443-1.623-7.982,0.699-11.159
			c0.619-0.847,1.379-1.622,1.733-2.609c0.982-2.732-1.492-5.828-0.491-8.553c0.25-0.681,0.7-1.268,1.019-1.919
			c0.618-1.263,0.72-2.704,0.895-4.099c0.493-3.934,1.651-7.785,3.409-11.339c0.964-1.949,2.15-3.858,3.895-5.155
			c1.745-1.298,4.149-1.882,6.143-1.016c1.836,0.797,2.991,2.616,3.921,4.388c1.242,2.366,2.288,4.835,3.122,7.374
			c1.448,4.403,2.254,8.987,3.055,13.552c0.655,3.731,1.31,7.461,1.965,11.192c0.334,1.905,0.677,3.836,1.501,5.586
			C377.042,157.656,380.444,160.955,379.088,164.425z"/>
	</g>
	<g>
		
			<linearGradient id="SVGID_00000016061160458542939400000017278646900393916054_" gradientUnits="userSpaceOnUse" x1="359.9912" y1="32.029" x2="359.9912" y2="397.9371">
			<stop  offset="6.260948e-04" style="stop-color:#85A0F2"/>
			<stop  offset="0.5" style="stop-color:#683FBF"/>
			<stop  offset="1" style="stop-color:#7C53CF"/>
		</linearGradient>
		<path style="fill:url(#SVGID_00000016061160458542939400000017278646900393916054_);" d="M452.327,205.562
			c-0.451-5.579-0.902-11.159-1.352-16.738c-0.418-5.181-0.86-10.461-2.86-15.259c-1.587-3.808-4.107-7.181-5.598-11.028
			c-3.839-9.904-0.44-21.675-5.008-31.265c-1.62-3.401-4.265-6.938-3.132-10.531c0.464-1.472,1.556-2.82,1.412-4.357
			c-0.198-2.114-2.502-3.23-4.347-4.282c-5.296-3.019-8.946-8.749-9.443-14.825c-0.324-3.966,0.611-7.926,0.665-11.905
			c0.054-3.979-1.036-8.357-4.315-10.611c-1.383-0.95-3.248-1.689-3.558-3.338c-0.249-1.323,0.668-2.541,1.231-3.764
			c1.148-2.493,0.788-5.613-0.897-7.779c-1.644-2.114-4.475-3.488-5.036-6.106c-0.47-2.197,0.896-4.518,0.275-6.677
			c-0.724-2.518-3.687-3.557-5.425-5.517c-5.479-6.181,3.065-17.873-2.892-23.596c-2.275-2.185-5.754-2.363-8.908-2.413
			c-3.841-0.061-7.681-0.123-11.522-0.184c-3.241-0.052-7.207,0.327-8.548,3.278c-0.934-2.835-3.477-6.359-6.05-4.846
			c-1.025,0.602-1.494,1.834-2.378,2.63c-4.345,3.916-11.354-5.769-16.215-2.516c-2.262,1.514-3.603,5.587-6.123,4.557
			c-0.756-0.309-1.235-1.039-1.751-1.671c-1.492-1.826-3.65-3.079-5.96-3.553c-7.523-1.543-14.207,4.826-18.806,10.975
			c-1.046,1.398-2.104,2.914-2.235,4.654c-0.205,2.706,1.83,4.993,2.905,7.484c2.646,6.128-0.656,13.132-4.458,18.618
			s-8.382,11.099-8.502,17.773c-0.047,2.603,0.524,5.523-1.093,7.563c-0.748,0.943-1.851,1.519-2.832,2.216
			c-5.027,3.575-6.725,10.328-6.632,16.496c0.092,6.168,1.59,12.277,1.345,18.441c-0.495,12.451-7.916,23.416-15.068,33.62
			c-0.655,0.934-1.31,1.869-1.965,2.803c-3.293,4.698-6.37,11.754-2,15.472c1.247,1.061,3.048,1.745,3.476,3.326
			c0.269,0.992-0.117,2.031-0.496,2.986c-2.83,7.127-5.931,11.633-8.76,18.76c-1.93,4.303-2.61,9.158-1.936,13.825
			c0.427,2.957,2.078,6.396,5.064,6.483c4.313,0.126,5.162-6.002,7.689-9.5c3.16-4.374,9.48-4.589,14.872-4.379
			c1.135,0.044,2.34,0.111,3.269,0.764c0.905,0.636,1.384,1.726,1.62,2.806c1.147,5.244-2.414,10.196-5.199,14.784
			c-2.785,4.589-4.768,10.989-1.109,14.917c0.574,0.616,1.29,1.139,2.117,1.297c2.948,0.562,4.532-3.225,5.479-6.073
			c3.56-10.71,13.252-18.01,19.837-27.176c6.326-8.806,9.81-19.62,9.816-30.463c4.469-0.787,8.988-1.29,13.521-1.504
			c2.334-0.11,5.064,0.042,6.414,1.949c0.87,1.228,0.89,2.841,0.937,4.345c0.111,3.574,0.688,7.424,3.202,9.967
			c2.514,2.543,7.528,2.737,9.21-0.418c1.576-2.956-0.459-7.007,1.409-9.788c4.151,1.633,9.108,3.199,12.816,0.719
			c3.827-2.56,4.911-8.682,9.392-9.741c2.904,5.061,5.807,10.123,8.711,15.184c0.824,1.437,1.659,2.901,2.023,4.517
			c0.748,3.325-0.539,7.076,1.093,10.069c1.105,2.027,3.291,3.18,4.929,4.807c3.022,3.004,4.031,7.453,6.328,11.042
			c2.298,3.589,7.392,6.311,10.705,3.632c2.91-2.354,2.204-6.867,1.476-10.538c-0.728-3.671-0.635-8.48,2.808-9.95
			c1.33-0.568,2.877-0.433,4.238,0.056c6.911,2.486,7.855,11.897,6.474,19.111c-1.381,7.214-3.68,15.371,0.567,21.364
			c6.369-3.446,12.16-8.69,14.345-15.595C453.144,216.032,452.743,210.72,452.327,205.562z M379.088,134.425
			c-1.08,2.765-4.869,3.587-7.602,2.43c-2.734-1.157-4.616-3.671-6.296-6.119c-1.331-1.94-3.338-4.182-5.572-3.443
			c-1.03,0.341-1.744,1.25-2.561,1.964c-2.789,2.437-7.355,2.507-10.218,0.157l-2.253-1.37c-1.908-3.443-1.623-7.982,0.699-11.159
			c0.619-0.847,1.379-1.622,1.733-2.609c0.982-2.732-1.492-5.828-0.491-8.553c0.25-0.681,0.7-1.268,1.019-1.919
			c0.618-1.263,0.72-2.704,0.895-4.099c0.493-3.934,1.651-7.785,3.409-11.339c0.964-1.949,2.15-3.858,3.895-5.155
			c1.745-1.298,4.149-1.882,6.143-1.016c1.836,0.797,2.991,2.616,3.921,4.388c1.242,2.366,2.288,4.835,3.122,7.374
			c1.448,4.403,2.254,8.987,3.055,13.552c0.655,3.731,1.31,7.461,1.965,11.192c0.334,1.905,0.677,3.836,1.501,5.586
			C377.042,127.656,380.444,130.955,379.088,134.425z"/>
		<path class="st1" d="M452.327,205.562c-0.451-5.579-0.902-11.159-1.352-16.738c-0.418-5.181-0.86-10.461-2.86-15.259
			c-1.587-3.808-4.107-7.181-5.598-11.028c-3.839-9.904-0.44-21.675-5.008-31.265c-1.62-3.401-4.265-6.938-3.132-10.531
			c0.464-1.472,1.556-2.82,1.412-4.357c-0.198-2.114-2.502-3.23-4.347-4.282c-5.296-3.019-8.946-8.749-9.443-14.825
			c-0.324-3.966,0.611-7.926,0.665-11.905c0.054-3.979-1.036-8.357-4.315-10.611c-1.383-0.95-3.248-1.689-3.558-3.338
			c-0.249-1.323,0.668-2.541,1.231-3.764c1.148-2.493,0.788-5.613-0.897-7.779c-1.644-2.114-4.475-3.488-5.036-6.106
			c-0.47-2.197,0.896-4.518,0.275-6.677c-0.724-2.518-3.687-3.557-5.425-5.517c-5.479-6.181,3.065-17.873-2.892-23.596
			c-2.275-2.185-5.754-2.363-8.908-2.413c-3.841-0.061-7.681-0.123-11.522-0.184c-3.241-0.052-7.207,0.327-8.548,3.278
			c-0.934-2.835-3.477-6.359-6.05-4.846c-1.025,0.602-1.494,1.834-2.378,2.63c-4.345,3.916-11.354-5.769-16.215-2.516
			c-2.262,1.514-3.603,5.587-6.123,4.557c-0.756-0.309-1.235-1.039-1.751-1.671c-1.492-1.826-3.65-3.079-5.96-3.553
			c-7.523-1.543-14.207,4.826-18.806,10.975c-1.046,1.398-2.104,2.914-2.235,4.654c-0.205,2.706,1.83,4.993,2.905,7.484
			c2.646,6.128-0.656,13.132-4.458,18.618s-8.382,11.099-8.502,17.773c-0.047,2.603,0.524,5.523-1.093,7.563
			c-0.748,0.943-1.851,1.519-2.832,2.216c-5.027,3.575-6.725,10.328-6.632,16.496c0.092,6.168,1.59,12.277,1.345,18.441
			c-0.495,12.451-7.916,23.416-15.068,33.62c-0.655,0.934-1.31,1.869-1.965,2.803c-3.293,4.698-6.37,11.754-2,15.472
			c1.247,1.061,3.048,1.745,3.476,3.326c0.269,0.992-0.117,2.031-0.496,2.986c-2.83,7.127-5.931,11.633-8.76,18.76
			c-1.93,4.303-2.61,9.158-1.936,13.825c0.427,2.957,2.078,6.396,5.064,6.483c4.313,0.126,5.162-6.002,7.689-9.5
			c3.16-4.374,9.48-4.589,14.872-4.379c1.135,0.044,2.34,0.111,3.269,0.764c0.905,0.636,1.384,1.726,1.62,2.806
			c1.147,5.244-2.414,10.196-5.199,14.784c-2.785,4.589-4.768,10.989-1.109,14.917c0.574,0.616,1.29,1.139,2.117,1.297
			c2.948,0.562,4.532-3.225,5.479-6.073c3.56-10.71,13.252-18.01,19.837-27.176c6.326-8.806,9.81-19.62,9.816-30.463
			c4.469-0.787,8.988-1.29,13.521-1.504c2.334-0.11,5.064,0.042,6.414,1.949c0.87,1.228,0.89,2.841,0.937,4.345
			c0.111,3.574,0.688,7.424,3.202,9.967c2.514,2.543,7.528,2.737,9.21-0.418c1.576-2.956-0.459-7.007,1.409-9.788
			c4.151,1.633,9.108,3.199,12.816,0.719c3.827-2.56,4.911-8.682,9.392-9.741c2.904,5.061,5.807,10.123,8.711,15.184
			c0.824,1.437,1.659,2.901,2.023,4.517c0.748,3.325-0.539,7.076,1.093,10.069c1.105,2.027,3.291,3.18,4.929,4.807
			c3.022,3.004,4.031,7.453,6.328,11.042c2.298,3.589,7.392,6.311,10.705,3.632c2.91-2.354,2.204-6.867,1.476-10.538
			c-0.728-3.671-0.635-8.48,2.808-9.95c1.33-0.568,2.877-0.433,4.238,0.056c6.911,2.486,7.855,11.897,6.474,19.111
			c-1.381,7.214-3.68,15.371,0.567,21.364c6.369-3.446,12.16-8.69,14.345-15.595C453.144,216.032,452.743,210.72,452.327,205.562z
			 M379.088,134.425c-1.08,2.765-4.869,3.587-7.602,2.43c-2.734-1.157-4.616-3.671-6.296-6.119c-1.331-1.94-3.338-4.182-5.572-3.443
			c-1.03,0.341-1.744,1.25-2.561,1.964c-2.789,2.437-7.355,2.507-10.218,0.157l-2.253-1.37c-1.908-3.443-1.623-7.982,0.699-11.159
			c0.619-0.847,1.379-1.622,1.733-2.609c0.982-2.732-1.492-5.828-0.491-8.553c0.25-0.681,0.7-1.268,1.019-1.919
			c0.618-1.263,0.72-2.704,0.895-4.099c0.493-3.934,1.651-7.785,3.409-11.339c0.964-1.949,2.15-3.858,3.895-5.155
			c1.745-1.298,4.149-1.882,6.143-1.016c1.836,0.797,2.991,2.616,3.921,4.388c1.242,2.366,2.288,4.835,3.122,7.374
			c1.448,4.403,2.254,8.987,3.055,13.552c0.655,3.731,1.31,7.461,1.965,11.192c0.334,1.905,0.677,3.836,1.501,5.586
			C377.042,127.656,380.444,130.955,379.088,134.425z"/>
	</g>
</g>
<g>
	<g>
		<path class="st0" d="M47.367,43.405c-11.034,11.988-1.738,33.029,5.747,47.501c3.143,6.077,7.251,11.822,8.679,18.514
			c2.982,13.973-6.274,29.284-0.452,42.332c2.919,6.543,9.224,11.214,11.676,17.946c1.769,4.856,1.317,10.19,1.36,15.358
			c0.1,12.085,3.026,23.947,5.934,35.677c2.373,9.574,4.747,19.147,7.12,28.721c0.757,3.052,1.518,6.143,1.505,9.288
			c-0.012,2.644-0.572,5.282-0.345,7.916c0.654,7.589,10.193,13.521,16.536,9.303c-0.246-5.138-2.563-9.91-4.117-14.813
			c-1.554-4.903-2.267-10.57,0.451-14.937c2.718-4.367,10.013-5.823,12.911-1.573c2.296,3.367,1.107,8.767,4.433,11.123
			c2.665,1.888,6.644,0.213,8.339-2.579c1.696-2.792,1.741-6.246,1.736-9.512c3.04-0.119,6.106,0.474,8.883,1.718
			c-6.824-33.216-13.679-66.719-13.558-100.629c9.103,24.726,18.206,49.453,27.309,74.179c2.152,5.846,4.305,11.693,6.242,17.613
			c0.763,2.332,1.528,4.739,3.097,6.625c1.321,1.587,3.116,2.688,4.766,3.929c4.895,3.681,8.682,8.816,10.754,14.579
			c2.606-3.035,2.623-7.453,2.371-11.445c-0.252-3.992-0.556-8.316,1.627-11.667c2.184-3.352,7.991-4.422,9.945-0.932
			c-0.209,5.472-0.4,11.082,1.32,16.281c1.72,5.199,5.784,9.982,11.173,10.951c2.873-4.15,0.801-9.723-0.264-14.657
			c-2.228-10.322,0.808-21.64,7.902-29.462c1.79-1.973,3.941-3.99,4.134-6.647c0.153-2.1-0.977-4.044-1.704-6.02
			c-3.956-10.761,3.961-21.928,6.093-33.193c2.473-13.072-2.374-28.741,6.703-38.468c4.083,1.246,6.409,5.718,6.786,9.97
			c0.377,4.252-0.725,8.477-1.213,12.718c-0.947,8.223,0.415,16.516,1.773,24.681c3.647,21.927,7.295,43.853,10.942,65.78
			c1.009,6.068,4.753,13.993,10.638,12.202c4.49-1.366,5.244-7.483,4.14-12.045c-1.103-4.562-3.169-9.437-1.267-13.728
			c2.146-4.843,8.77-6.383,13.675-4.381s8.291,6.559,10.757,11.248c6.259-14.732,6.949-31.754,1.901-46.944
			c-0.956-2.878-2.127-5.801-1.929-8.827c0.533-8.144,10.633-14.225,8.874-22.194c-0.558-2.526-2.262-4.613-3.578-6.84
			c-8.732-14.779,0.087-33.63-1.956-50.674c-0.698-5.823-2.68-11.401-4.205-17.065c-3.279-12.183-4.453-24.929-3.454-37.506
			c0.319-4.022,0.837-8.208-0.597-11.979c-1.435-3.77-5.624-6.862-9.427-5.516c2.833,4.805-2.872,10.675-8.422,11.234
			c-5.55,0.559-11.049-1.744-16.621-1.486c-5.658,0.262-13.493,1.953-15.21-3.444c-2.321,1.618-4.155,3.926-5.205,6.553
			c-1.769-1.642-4.543-1.089-6.955-0.984c-2.412,0.105-5.516-1.173-5.254-3.572c-3.216,4.612-7.927,8.164-13.246,9.986
			c5.446,5.595,9.38,13.369,8.074,21.066c-2.091,12.32-16.363,19.931-18.045,32.313c-1.201,8.843,4.431,18.252,0.848,26.426
			c-1.994,4.548-6.393,7.482-9.685,11.201s-5.419,9.643-2.255,13.472c-8.605-9.953-13.737-22.851-14.324-35.995
			c-1.377-0.556-2.717-1.203-4.003-1.944c-9.521-5.485-15.711-17.894-11.154-27.893c-2.379,0.803-4.251-2.304-4.268-4.815
			c-0.017-2.51,0.653-5.333-0.896-7.309c-1.266-1.615-3.585-2.011-5.057-3.441c-2.682-2.605-1.433-7.024-1.682-10.754
			c-0.587-8.828-9.88-14.046-17.968-17.632c-2.66-1.18-5.343-2.367-8.185-2.992c-3.141-0.692-6.389-0.679-9.605-0.663
			c-9.15,0.046-18.299,0.092-27.449,0.138c-3.341,0.017-6.952,0.122-9.593,2.168C60.615,41.055,51.395,39.029,47.367,43.405z"/>
		<path class="st1" d="M47.367,43.405c-11.034,11.988-1.738,33.029,5.747,47.501c3.143,6.077,7.251,11.822,8.679,18.514
			c2.982,13.973-6.274,29.284-0.452,42.332c2.919,6.543,9.224,11.214,11.676,17.946c1.769,4.856,1.317,10.19,1.36,15.358
			c0.1,12.085,3.026,23.947,5.934,35.677c2.373,9.574,4.747,19.147,7.12,28.721c0.757,3.052,1.518,6.143,1.505,9.288
			c-0.012,2.644-0.572,5.282-0.345,7.916c0.654,7.589,10.193,13.521,16.536,9.303c-0.246-5.138-2.563-9.91-4.117-14.813
			c-1.554-4.903-2.267-10.57,0.451-14.937c2.718-4.367,10.013-5.823,12.911-1.573c2.296,3.367,1.107,8.767,4.433,11.123
			c2.665,1.888,6.644,0.213,8.339-2.579c1.696-2.792,1.741-6.246,1.736-9.512c3.04-0.119,6.106,0.474,8.883,1.718
			c-6.824-33.216-13.679-66.719-13.558-100.629c9.103,24.726,18.206,49.453,27.309,74.179c2.152,5.846,4.305,11.693,6.242,17.613
			c0.763,2.332,1.528,4.739,3.097,6.625c1.321,1.587,3.116,2.688,4.766,3.929c4.895,3.681,8.682,8.816,10.754,14.579
			c2.606-3.035,2.623-7.453,2.371-11.445c-0.252-3.992-0.556-8.316,1.627-11.667c2.184-3.352,7.991-4.422,9.945-0.932
			c-0.209,5.472-0.4,11.082,1.32,16.281c1.72,5.199,5.784,9.982,11.173,10.951c2.873-4.15,0.801-9.723-0.264-14.657
			c-2.228-10.322,0.808-21.64,7.902-29.462c1.79-1.973,3.941-3.99,4.134-6.647c0.153-2.1-0.977-4.044-1.704-6.02
			c-3.956-10.761,3.961-21.928,6.093-33.193c2.473-13.072-2.374-28.741,6.703-38.468c4.083,1.246,6.409,5.718,6.786,9.97
			c0.377,4.252-0.725,8.477-1.213,12.718c-0.947,8.223,0.415,16.516,1.773,24.681c3.647,21.927,7.295,43.853,10.942,65.78
			c1.009,6.068,4.753,13.993,10.638,12.202c4.49-1.366,5.244-7.483,4.14-12.045c-1.103-4.562-3.169-9.437-1.267-13.728
			c2.146-4.843,8.77-6.383,13.675-4.381s8.291,6.559,10.757,11.248c6.259-14.732,6.949-31.754,1.901-46.944
			c-0.956-2.878-2.127-5.801-1.929-8.827c0.533-8.144,10.633-14.225,8.874-22.194c-0.558-2.526-2.262-4.613-3.578-6.84
			c-8.732-14.779,0.087-33.63-1.956-50.674c-0.698-5.823-2.68-11.401-4.205-17.065c-3.279-12.183-4.453-24.929-3.454-37.506
			c0.319-4.022,0.837-8.208-0.597-11.979c-1.435-3.77-5.624-6.862-9.427-5.516c2.833,4.805-2.872,10.675-8.422,11.234
			c-5.55,0.559-11.049-1.744-16.621-1.486c-5.658,0.262-13.493,1.953-15.21-3.444c-2.321,1.618-4.155,3.926-5.205,6.553
			c-1.769-1.642-4.543-1.089-6.955-0.984c-2.412,0.105-5.516-1.173-5.254-3.572c-3.216,4.612-7.927,8.164-13.246,9.986
			c5.446,5.595,9.38,13.369,8.074,21.066c-2.091,12.32-16.363,19.931-18.045,32.313c-1.201,8.843,4.431,18.252,0.848,26.426
			c-1.994,4.548-6.393,7.482-9.685,11.201s-5.419,9.643-2.255,13.472c-8.605-9.953-13.737-22.851-14.324-35.995
			c-1.377-0.556-2.717-1.203-4.003-1.944c-9.521-5.485-15.711-17.894-11.154-27.893c-2.379,0.803-4.251-2.304-4.268-4.815
			c-0.017-2.51,0.653-5.333-0.896-7.309c-1.266-1.615-3.585-2.011-5.057-3.441c-2.682-2.605-1.433-7.024-1.682-10.754
			c-0.587-8.828-9.88-14.046-17.968-17.632c-2.66-1.18-5.343-2.367-8.185-2.992c-3.141-0.692-6.389-0.679-9.605-0.663
			c-9.15,0.046-18.299,0.092-27.449,0.138c-3.341,0.017-6.952,0.122-9.593,2.168C60.615,41.055,51.395,39.029,47.367,43.405z"/>
	</g>
	<g>
		
			<linearGradient id="SVGID_00000148647282998855758990000012534645320727042493_" gradientUnits="userSpaceOnUse" x1="166.6228" y1="32.029" x2="166.6228" y2="397.9371">
			<stop  offset="6.260948e-04" style="stop-color:#85A0F2"/>
			<stop  offset="0.5" style="stop-color:#683FBF"/>
			<stop  offset="1" style="stop-color:#7C53CF"/>
		</linearGradient>
		<path style="fill:url(#SVGID_00000148647282998855758990000012534645320727042493_);" d="M47.367,13.405
			c-11.034,11.988-1.738,33.029,5.747,47.501c3.143,6.077,7.251,11.822,8.679,18.514c2.982,13.973-6.274,29.284-0.452,42.332
			c2.919,6.543,9.224,11.214,11.676,17.946c1.769,4.856,1.317,10.19,1.36,15.358c0.1,12.085,3.026,23.947,5.934,35.677
			c2.373,9.574,4.747,19.147,7.12,28.721c0.757,3.052,1.518,6.143,1.505,9.288c-0.012,2.644-0.572,5.282-0.345,7.916
			c0.654,7.589,10.193,13.521,16.536,9.303c-0.246-5.138-2.563-9.91-4.117-14.813c-1.554-4.903-2.267-10.57,0.451-14.937
			c2.718-4.367,10.013-5.823,12.911-1.573c2.296,3.367,1.107,8.767,4.433,11.123c2.665,1.888,6.644,0.213,8.339-2.579
			c1.696-2.792,1.741-6.246,1.736-9.512c3.04-0.119,6.106,0.474,8.883,1.718c-6.824-33.216-13.679-66.719-13.558-100.629
			c9.103,24.726,18.206,49.453,27.309,74.179c2.152,5.846,4.305,11.693,6.242,17.613c0.763,2.332,1.528,4.739,3.097,6.625
			c1.321,1.587,3.116,2.688,4.766,3.929c4.895,3.681,8.682,8.816,10.754,14.579c2.606-3.035,2.623-7.453,2.371-11.445
			c-0.252-3.992-0.556-8.316,1.627-11.667c2.184-3.352,7.991-4.422,9.945-0.932c-0.209,5.472-0.4,11.082,1.32,16.281
			c1.72,5.199,5.784,9.982,11.173,10.951c2.873-4.15,0.801-9.723-0.264-14.656c-2.228-10.322,0.808-21.64,7.902-29.462
			c1.79-1.973,3.941-3.99,4.134-6.647c0.153-2.1-0.977-4.044-1.704-6.02c-3.956-10.761,3.961-21.928,6.093-33.193
			c2.473-13.072-2.374-28.741,6.703-38.468c4.083,1.246,6.409,5.718,6.786,9.97c0.377,4.252-0.725,8.477-1.213,12.718
			c-0.947,8.223,0.415,16.516,1.773,24.681c3.647,21.927,7.295,43.853,10.942,65.78c1.009,6.068,4.753,13.993,10.638,12.202
			c4.49-1.366,5.244-7.483,4.14-12.045c-1.103-4.562-3.169-9.437-1.267-13.728c2.146-4.843,8.77-6.383,13.675-4.381
			s8.291,6.559,10.757,11.248c6.259-14.732,6.949-31.754,1.901-46.944c-0.956-2.878-2.127-5.801-1.929-8.827
			c0.533-8.144,10.633-14.225,8.874-22.194c-0.558-2.526-2.262-4.613-3.578-6.84c-8.732-14.779,0.087-33.63-1.956-50.674
			c-0.698-5.823-2.68-11.401-4.205-17.065c-3.279-12.183-4.453-24.929-3.454-37.506c0.319-4.022,0.837-8.208-0.597-11.979
			c-1.435-3.77-5.624-6.862-9.427-5.516c2.833,4.805-2.872,10.675-8.422,11.234c-5.55,0.559-11.049-1.744-16.621-1.486
			c-5.658,0.262-13.493,1.953-15.21-3.444c-2.321,1.618-4.155,3.926-5.205,6.553c-1.769-1.642-4.543-1.089-6.955-0.984
			c-2.412,0.105-5.516-1.173-5.254-3.572c-3.216,4.612-7.927,8.164-13.246,9.986c5.446,5.595,9.38,13.369,8.074,21.066
			c-2.091,12.32-16.363,19.931-18.045,32.313c-1.201,8.843,4.431,18.252,0.848,26.426c-1.994,4.548-6.393,7.482-9.685,11.201
			s-5.419,9.643-2.255,13.472c-8.605-9.953-13.737-22.851-14.324-35.995c-1.377-0.556-2.717-1.203-4.003-1.944
			c-9.521-5.485-15.711-17.894-11.154-27.893c-2.379,0.803-4.251-2.304-4.268-4.815c-0.017-2.51,0.653-5.333-0.896-7.309
			c-1.266-1.615-3.585-2.011-5.057-3.441c-2.682-2.605-1.433-7.024-1.682-10.754c-0.587-8.828-9.88-14.046-17.968-17.632
			c-2.66-1.18-5.343-2.367-8.185-2.992c-3.141-0.692-6.389-0.679-9.605-0.663c-9.15,0.046-18.299,0.092-27.449,0.138
			c-3.341,0.017-6.952,0.122-9.593,2.168C60.615,11.055,51.395,9.029,47.367,13.405z"/>
		<path class="st1" d="M47.367,13.405c-11.034,11.988-1.738,33.029,5.747,47.501c3.143,6.077,7.251,11.822,8.679,18.514
			c2.982,13.973-6.274,29.284-0.452,42.332c2.919,6.543,9.224,11.214,11.676,17.946c1.769,4.856,1.317,10.19,1.36,15.358
			c0.1,12.085,3.026,23.947,5.934,35.677c2.373,9.574,4.747,19.147,7.12,28.721c0.757,3.052,1.518,6.143,1.505,9.288
			c-0.012,2.644-0.572,5.282-0.345,7.916c0.654,7.589,10.193,13.521,16.536,9.303c-0.246-5.138-2.563-9.91-4.117-14.813
			c-1.554-4.903-2.267-10.57,0.451-14.937c2.718-4.367,10.013-5.823,12.911-1.573c2.296,3.367,1.107,8.767,4.433,11.123
			c2.665,1.888,6.644,0.213,8.339-2.579c1.696-2.792,1.741-6.246,1.736-9.512c3.04-0.119,6.106,0.474,8.883,1.718
			c-6.824-33.216-13.679-66.719-13.558-100.629c9.103,24.726,18.206,49.453,27.309,74.179c2.152,5.846,4.305,11.693,6.242,17.613
			c0.763,2.332,1.528,4.739,3.097,6.625c1.321,1.587,3.116,2.688,4.766,3.929c4.895,3.681,8.682,8.816,10.754,14.579
			c2.606-3.035,2.623-7.453,2.371-11.445c-0.252-3.992-0.556-8.316,1.627-11.667c2.184-3.352,7.991-4.422,9.945-0.932
			c-0.209,5.472-0.4,11.082,1.32,16.281c1.72,5.199,5.784,9.982,11.173,10.951c2.873-4.15,0.801-9.723-0.264-14.656
			c-2.228-10.322,0.808-21.64,7.902-29.462c1.79-1.973,3.941-3.99,4.134-6.647c0.153-2.1-0.977-4.044-1.704-6.02
			c-3.956-10.761,3.961-21.928,6.093-33.193c2.473-13.072-2.374-28.741,6.703-38.468c4.083,1.246,6.409,5.718,6.786,9.97
			c0.377,4.252-0.725,8.477-1.213,12.718c-0.947,8.223,0.415,16.516,1.773,24.681c3.647,21.927,7.295,43.853,10.942,65.78
			c1.009,6.068,4.753,13.993,10.638,12.202c4.49-1.366,5.244-7.483,4.14-12.045c-1.103-4.562-3.169-9.437-1.267-13.728
			c2.146-4.843,8.77-6.383,13.675-4.381s8.291,6.559,10.757,11.248c6.259-14.732,6.949-31.754,1.901-46.944
			c-0.956-2.878-2.127-5.801-1.929-8.827c0.533-8.144,10.633-14.225,8.874-22.194c-0.558-2.526-2.262-4.613-3.578-6.84
			c-8.732-14.779,0.087-33.63-1.956-50.674c-0.698-5.823-2.68-11.401-4.205-17.065c-3.279-12.183-4.453-24.929-3.454-37.506
			c0.319-4.022,0.837-8.208-0.597-11.979c-1.435-3.77-5.624-6.862-9.427-5.516c2.833,4.805-2.872,10.675-8.422,11.234
			c-5.55,0.559-11.049-1.744-16.621-1.486c-5.658,0.262-13.493,1.953-15.21-3.444c-2.321,1.618-4.155,3.926-5.205,6.553
			c-1.769-1.642-4.543-1.089-6.955-0.984c-2.412,0.105-5.516-1.173-5.254-3.572c-3.216,4.612-7.927,8.164-13.246,9.986
			c5.446,5.595,9.38,13.369,8.074,21.066c-2.091,12.32-16.363,19.931-18.045,32.313c-1.201,8.843,4.431,18.252,0.848,26.426
			c-1.994,4.548-6.393,7.482-9.685,11.201s-5.419,9.643-2.255,13.472c-8.605-9.953-13.737-22.851-14.324-35.995
			c-1.377-0.556-2.717-1.203-4.003-1.944c-9.521-5.485-15.711-17.894-11.154-27.893c-2.379,0.803-4.251-2.304-4.268-4.815
			c-0.017-2.51,0.653-5.333-0.896-7.309c-1.266-1.615-3.585-2.011-5.057-3.441c-2.682-2.605-1.433-7.024-1.682-10.754
			c-0.587-8.828-9.88-14.046-17.968-17.632c-2.66-1.18-5.343-2.367-8.185-2.992c-3.141-0.692-6.389-0.679-9.605-0.663
			c-9.15,0.046-18.299,0.092-27.449,0.138c-3.341,0.017-6.952,0.122-9.593,2.168C60.615,11.055,51.395,9.029,47.367,13.405z"/>
	</g>
</g>
<g>
	<g>
		<path class="st0" d="M645.911,332.2c-0.583-6.204-0.336-4.232-0.848-10.442c-0.209-2.532-0.69-7.569-0.982-10.093
			c-1.182-10.207-1.886-17.835-7.461-26.467c-6.199-9.598-15.895-16.784-26.732-20.406c-9.22-3.082-19.209-3.648-28.807-2.099
			c-6.33,1.022-12.476,2.937-18.596,4.847c-9.975,3.111-20.341,6.449-27.85,13.714c-7.969,7.709-11.627,18.826-13.763,29.707
			c-4.672,23.802-3.33,48.76,3.867,71.924c1.045,3.364,2.943,7.284,6.458,7.51c4.641,0.298,6.596-5.746,7.02-10.377
			c3.363-1.974,7.613,0.533,10.205,3.446c2.592,2.913,4.92,6.547,8.695,7.523c1.608,0.416,3.364,0.298,4.859,1.024
			c3.059,1.486,3.544,5.525,4.991,8.603c0.924,1.966,2.371,3.699,2.945,5.794c0.573,2.095-0.174,4.833-2.272,5.397
			c2.081,3.8,4.162,7.6,6.242,11.4c-1.28,5.795-9.866,8.237-14.004,3.983c-3.593-3.694-2.998-9.57-3.59-14.689
			c-0.592-5.119-4.63-11.107-9.531-9.519c-1.732,0.561-3.115,2.012-4.904,2.352c-1.78,0.338-3.547-0.492-5.201-1.231
			c-8.079-3.612-16.897-5.561-25.746-5.69c-2.353-0.158-4.374,1.942-4.964,4.225c-0.59,2.283-0.102,4.69,0.387,6.996
			c0.322,1.521,0.645,3.041,0.967,4.562c0.392,1.85,0.788,3.713,1.524,5.454c0.892,2.111,2.281,4.046,2.694,6.3
			c0.466,2.545-0.374,5.119-0.835,7.665c-2.991,16.504,9.889,32.163,9.47,48.93c-0.095,3.786-0.819,7.844,1.008,11.161
			c1.013,1.84,2.724,3.239,3.63,5.134c2.082,4.353,0.101,11.152,4.501,13.133c3.379,1.521,7.154-2.192,7.412-5.888
			c0.258-3.696-1.642-7.144-2.976-10.601c-3.017-7.815-3.224-16.682-0.575-24.63c0.373-1.12,1.083-2.424,2.263-2.393
			c0.869,0.023,1.511,0.787,2.026,1.488c4.045,5.515,8.671,11.859,15.489,12.399c3.548,0.281,7.308-1.115,10.576,0.293
			c4.328,1.864,5.389,7.57,4.793,12.244c-0.596,4.674-2.22,9.45-0.925,13.981c1.295,4.531,7.506,7.891,10.758,4.482
			c0.998-1.047,1.469-2.48,1.826-3.882c1.165-4.574,1.427-9.377,0.767-14.051c-0.311-2.2-0.823-4.446-0.349-6.617
			c0.474-2.171,2.323-4.255,4.539-4.086c1.372,0.105,2.572,1.028,3.94,1.171c1.467,0.154,2.859-0.604,4.14-1.337
			c10.351-5.922,21.632-13.016,24.614-24.563c3.376,6.905,4.511,14.883,3.195,22.455c-0.821,4.723-2.12,10.659,1.794,13.427
			c3.319,2.347,8.274,0.123,10.236-3.437c1.962-3.56,1.782-7.867,1.55-11.925c-0.742-12.944-1.528-26.112-6.029-38.272
			c-1.451-3.919-3.31-8.071-2.25-12.113c0.816-3.114,3.243-5.552,4.443-8.54c1.753-4.366,0.699-9.296-0.386-13.874
			c-3.464-14.616-7.367-29.874-17.477-40.982c-4.645-5.104-10.381-9.064-15.714-13.446c-7.791-6.402-14.785-13.773-20.769-21.889
			c-2.366-3.209-4.663-7.358-2.978-10.972c1.202-2.578,4.036-3.903,6.651-5.023c1.883-0.807,4.024-1.62,5.916-0.833
			c2.492,1.036,3.155,4.151,4.034,6.703c1.786,5.184,5.634,9.352,9.381,13.356c6.712,7.172,13.424,14.343,20.136,21.515
			c4.64-3.116-0.157-12.496,4.737-15.193c2.305-1.27,5.333,0.228,6.7,2.477c1.367,2.249,1.539,4.995,1.795,7.614
			c0.674,6.904,2.179,13.726,4.47,20.273c0.419,1.196,0.988,2.514,2.173,2.964c2.371,0.9,4.138-2.265,4.649-4.748
			C646.388,357.272,647.08,344.649,645.911,332.2z"/>
		<path class="st1" d="M645.911,332.2c-0.583-6.204-0.336-4.232-0.848-10.442c-0.209-2.532-0.69-7.569-0.982-10.093
			c-1.182-10.207-1.886-17.835-7.461-26.467c-6.199-9.598-15.895-16.784-26.732-20.406c-9.22-3.082-19.209-3.648-28.807-2.099
			c-6.33,1.022-12.476,2.937-18.596,4.847c-9.975,3.111-20.341,6.449-27.85,13.714c-7.969,7.709-11.627,18.826-13.763,29.707
			c-4.672,23.802-3.33,48.76,3.867,71.924c1.045,3.364,2.943,7.284,6.458,7.51c4.641,0.298,6.596-5.746,7.02-10.377
			c3.363-1.974,7.613,0.533,10.205,3.446c2.592,2.913,4.92,6.547,8.695,7.523c1.608,0.416,3.364,0.298,4.859,1.024
			c3.059,1.486,3.544,5.525,4.991,8.603c0.924,1.966,2.371,3.699,2.945,5.794c0.573,2.095-0.174,4.833-2.272,5.397
			c2.081,3.8,4.162,7.6,6.242,11.4c-1.28,5.795-9.866,8.237-14.004,3.983c-3.593-3.694-2.998-9.57-3.59-14.689
			c-0.592-5.119-4.63-11.107-9.531-9.519c-1.732,0.561-3.115,2.012-4.904,2.352c-1.78,0.338-3.547-0.492-5.201-1.231
			c-8.079-3.612-16.897-5.561-25.746-5.69c-2.353-0.158-4.374,1.942-4.964,4.225c-0.59,2.283-0.102,4.69,0.387,6.996
			c0.322,1.521,0.645,3.041,0.967,4.562c0.392,1.85,0.788,3.713,1.524,5.454c0.892,2.111,2.281,4.046,2.694,6.3
			c0.466,2.545-0.374,5.119-0.835,7.665c-2.991,16.504,9.889,32.163,9.47,48.93c-0.095,3.786-0.819,7.844,1.008,11.161
			c1.013,1.84,2.724,3.239,3.63,5.134c2.082,4.353,0.101,11.152,4.501,13.133c3.379,1.521,7.154-2.192,7.412-5.888
			c0.258-3.696-1.642-7.144-2.976-10.601c-3.017-7.815-3.224-16.682-0.575-24.63c0.373-1.12,1.083-2.424,2.263-2.393
			c0.869,0.023,1.511,0.787,2.026,1.488c4.045,5.515,8.671,11.859,15.489,12.399c3.548,0.281,7.308-1.115,10.576,0.293
			c4.328,1.864,5.389,7.57,4.793,12.244c-0.596,4.674-2.22,9.45-0.925,13.981c1.295,4.531,7.506,7.891,10.758,4.482
			c0.998-1.047,1.469-2.48,1.826-3.882c1.165-4.574,1.427-9.377,0.767-14.051c-0.311-2.2-0.823-4.446-0.349-6.617
			c0.474-2.171,2.323-4.255,4.539-4.086c1.372,0.105,2.572,1.028,3.94,1.171c1.467,0.154,2.859-0.604,4.14-1.337
			c10.351-5.922,21.632-13.016,24.614-24.563c3.376,6.905,4.511,14.883,3.195,22.455c-0.821,4.723-2.12,10.659,1.794,13.427
			c3.319,2.347,8.274,0.123,10.236-3.437c1.962-3.56,1.782-7.867,1.55-11.925c-0.742-12.944-1.528-26.112-6.029-38.272
			c-1.451-3.919-3.31-8.071-2.25-12.113c0.816-3.114,3.243-5.552,4.443-8.54c1.753-4.366,0.699-9.296-0.386-13.874
			c-3.464-14.616-7.367-29.874-17.477-40.982c-4.645-5.104-10.381-9.064-15.714-13.446c-7.791-6.402-14.785-13.773-20.769-21.889
			c-2.366-3.209-4.663-7.358-2.978-10.972c1.202-2.578,4.036-3.903,6.651-5.023c1.883-0.807,4.024-1.62,5.916-0.833
			c2.492,1.036,3.155,4.151,4.034,6.703c1.786,5.184,5.634,9.352,9.381,13.356c6.712,7.172,13.424,14.343,20.136,21.515
			c4.64-3.116-0.157-12.496,4.737-15.193c2.305-1.27,5.333,0.228,6.7,2.477c1.367,2.249,1.539,4.995,1.795,7.614
			c0.674,6.904,2.179,13.726,4.47,20.273c0.419,1.196,0.988,2.514,2.173,2.964c2.371,0.9,4.138-2.265,4.649-4.748
			C646.388,357.272,647.08,344.649,645.911,332.2z"/>
	</g>
	<g>
		
			<linearGradient id="SVGID_00000109716971360619958030000014636360073948079276_" gradientUnits="userSpaceOnUse" x1="576.0667" y1="32.029" x2="576.0667" y2="397.9371">
			<stop  offset="6.260948e-04" style="stop-color:#85A0F2"/>
			<stop  offset="0.5" style="stop-color:#683FBF"/>
			<stop  offset="1" style="stop-color:#7C53CF"/>
		</linearGradient>
		<path style="fill:url(#SVGID_00000109716971360619958030000014636360073948079276_);" d="M645.911,302.2
			c-0.583-6.204-0.336-4.232-0.848-10.442c-0.209-2.532-0.69-7.569-0.982-10.093c-1.182-10.207-1.886-17.835-7.461-26.467
			c-6.199-9.598-15.895-16.784-26.732-20.406c-9.22-3.082-19.209-3.648-28.807-2.099c-6.33,1.022-12.476,2.937-18.596,4.847
			c-9.975,3.111-20.341,6.449-27.85,13.714c-7.969,7.709-11.627,18.826-13.763,29.707c-4.672,23.802-3.33,48.76,3.867,71.924
			c1.045,3.364,2.943,7.284,6.458,7.51c4.641,0.298,6.596-5.746,7.02-10.377c3.363-1.974,7.613,0.533,10.205,3.446
			c2.592,2.913,4.92,6.547,8.695,7.523c1.608,0.416,3.364,0.298,4.859,1.024c3.059,1.486,3.544,5.525,4.991,8.603
			c0.924,1.966,2.371,3.699,2.945,5.794c0.573,2.095-0.174,4.833-2.272,5.397c2.081,3.8,4.162,7.6,6.242,11.4
			c-1.28,5.795-9.866,8.237-14.004,3.983c-3.593-3.694-2.998-9.57-3.59-14.689c-0.592-5.119-4.63-11.107-9.531-9.519
			c-1.732,0.561-3.115,2.012-4.904,2.352c-1.78,0.338-3.547-0.492-5.201-1.231c-8.079-3.612-16.897-5.561-25.746-5.69
			c-2.353-0.158-4.374,1.942-4.964,4.225c-0.59,2.283-0.102,4.69,0.387,6.996c0.322,1.521,0.645,3.041,0.967,4.562
			c0.392,1.85,0.788,3.713,1.524,5.454c0.892,2.111,2.281,4.046,2.694,6.3c0.466,2.545-0.374,5.119-0.835,7.665
			c-2.991,16.504,9.889,32.163,9.47,48.93c-0.095,3.786-0.819,7.844,1.008,11.161c1.013,1.84,2.724,3.239,3.63,5.134
			c2.082,4.353,0.101,11.152,4.501,13.133c3.379,1.521,7.154-2.192,7.412-5.888c0.258-3.696-1.642-7.144-2.976-10.601
			c-3.017-7.815-3.224-16.682-0.575-24.63c0.373-1.12,1.083-2.424,2.263-2.393c0.869,0.023,1.511,0.787,2.026,1.488
			c4.045,5.515,8.671,11.859,15.489,12.399c3.548,0.281,7.308-1.115,10.576,0.293c4.328,1.864,5.389,7.57,4.793,12.244
			c-0.596,4.674-2.22,9.45-0.925,13.981c1.295,4.531,7.506,7.891,10.758,4.482c0.998-1.047,1.469-2.48,1.826-3.882
			c1.165-4.574,1.427-9.377,0.767-14.051c-0.311-2.2-0.823-4.446-0.349-6.617c0.474-2.171,2.323-4.255,4.539-4.086
			c1.372,0.105,2.572,1.028,3.94,1.171c1.467,0.154,2.859-0.604,4.14-1.337c10.351-5.922,21.632-13.016,24.614-24.563
			c3.376,6.905,4.511,14.883,3.195,22.455c-0.821,4.723-2.12,10.659,1.794,13.427c3.319,2.347,8.274,0.123,10.236-3.437
			c1.962-3.56,1.782-7.867,1.55-11.925c-0.742-12.944-1.528-26.112-6.029-38.272c-1.451-3.919-3.31-8.071-2.25-12.113
			c0.816-3.114,3.243-5.552,4.443-8.54c1.753-4.366,0.699-9.296-0.386-13.874c-3.464-14.616-7.367-29.874-17.477-40.982
			c-4.645-5.104-10.381-9.064-15.714-13.446c-7.791-6.402-14.785-13.773-20.769-21.889c-2.366-3.209-4.663-7.358-2.978-10.972
			c1.202-2.578,4.036-3.903,6.651-5.023c1.883-0.807,4.024-1.62,5.916-0.833c2.492,1.036,3.155,4.151,4.034,6.703
			c1.786,5.184,5.634,9.352,9.381,13.356c6.712,7.172,13.424,14.343,20.136,21.515c4.64-3.116-0.157-12.496,4.737-15.193
			c2.305-1.27,5.333,0.228,6.7,2.477c1.367,2.249,1.539,4.995,1.795,7.614c0.674,6.904,2.179,13.726,4.47,20.273
			c0.419,1.196,0.988,2.514,2.173,2.964c2.371,0.9,4.138-2.265,4.649-4.748C646.388,327.272,647.08,314.649,645.911,302.2z"/>
		<path class="st1" d="M645.911,302.2c-0.583-6.204-0.336-4.232-0.848-10.442c-0.209-2.532-0.69-7.569-0.982-10.093
			c-1.182-10.207-1.886-17.835-7.461-26.467c-6.199-9.598-15.895-16.784-26.732-20.406c-9.22-3.082-19.209-3.648-28.807-2.099
			c-6.33,1.022-12.476,2.937-18.596,4.847c-9.975,3.111-20.341,6.449-27.85,13.714c-7.969,7.709-11.627,18.826-13.763,29.707
			c-4.672,23.802-3.33,48.76,3.867,71.924c1.045,3.364,2.943,7.284,6.458,7.51c4.641,0.298,6.596-5.746,7.02-10.377
			c3.363-1.974,7.613,0.533,10.205,3.446c2.592,2.913,4.92,6.547,8.695,7.523c1.608,0.416,3.364,0.298,4.859,1.024
			c3.059,1.486,3.544,5.525,4.991,8.603c0.924,1.966,2.371,3.699,2.945,5.794c0.573,2.095-0.174,4.833-2.272,5.397
			c2.081,3.8,4.162,7.6,6.242,11.4c-1.28,5.795-9.866,8.237-14.004,3.983c-3.593-3.694-2.998-9.57-3.59-14.689
			c-0.592-5.119-4.63-11.107-9.531-9.519c-1.732,0.561-3.115,2.012-4.904,2.352c-1.78,0.338-3.547-0.492-5.201-1.231
			c-8.079-3.612-16.897-5.561-25.746-5.69c-2.353-0.158-4.374,1.942-4.964,4.225c-0.59,2.283-0.102,4.69,0.387,6.996
			c0.322,1.521,0.645,3.041,0.967,4.562c0.392,1.85,0.788,3.713,1.524,5.454c0.892,2.111,2.281,4.046,2.694,6.3
			c0.466,2.545-0.374,5.119-0.835,7.665c-2.991,16.504,9.889,32.163,9.47,48.93c-0.095,3.786-0.819,7.844,1.008,11.161
			c1.013,1.84,2.724,3.239,3.63,5.134c2.082,4.353,0.101,11.152,4.501,13.133c3.379,1.521,7.154-2.192,7.412-5.888
			c0.258-3.696-1.642-7.144-2.976-10.601c-3.017-7.815-3.224-16.682-0.575-24.63c0.373-1.12,1.083-2.424,2.263-2.393
			c0.869,0.023,1.511,0.787,2.026,1.488c4.045,5.515,8.671,11.859,15.489,12.399c3.548,0.281,7.308-1.115,10.576,0.293
			c4.328,1.864,5.389,7.57,4.793,12.244c-0.596,4.674-2.22,9.45-0.925,13.981c1.295,4.531,7.506,7.891,10.758,4.482
			c0.998-1.047,1.469-2.48,1.826-3.882c1.165-4.574,1.427-9.377,0.767-14.051c-0.311-2.2-0.823-4.446-0.349-6.617
			c0.474-2.171,2.323-4.255,4.539-4.086c1.372,0.105,2.572,1.028,3.94,1.171c1.467,0.154,2.859-0.604,4.14-1.337
			c10.351-5.922,21.632-13.016,24.614-24.563c3.376,6.905,4.511,14.883,3.195,22.455c-0.821,4.723-2.12,10.659,1.794,13.427
			c3.319,2.347,8.274,0.123,10.236-3.437c1.962-3.56,1.782-7.867,1.55-11.925c-0.742-12.944-1.528-26.112-6.029-38.272
			c-1.451-3.919-3.31-8.071-2.25-12.113c0.816-3.114,3.243-5.552,4.443-8.54c1.753-4.366,0.699-9.296-0.386-13.874
			c-3.464-14.616-7.367-29.874-17.477-40.982c-4.645-5.104-10.381-9.064-15.714-13.446c-7.791-6.402-14.785-13.773-20.769-21.889
			c-2.366-3.209-4.663-7.358-2.978-10.972c1.202-2.578,4.036-3.903,6.651-5.023c1.883-0.807,4.024-1.62,5.916-0.833
			c2.492,1.036,3.155,4.151,4.034,6.703c1.786,5.184,5.634,9.352,9.381,13.356c6.712,7.172,13.424,14.343,20.136,21.515
			c4.64-3.116-0.157-12.496,4.737-15.193c2.305-1.27,5.333,0.228,6.7,2.477c1.367,2.249,1.539,4.995,1.795,7.614
			c0.674,6.904,2.179,13.726,4.47,20.273c0.419,1.196,0.988,2.514,2.173,2.964c2.371,0.9,4.138-2.265,4.649-4.748
			C646.388,327.272,647.08,314.649,645.911,302.2z"/>
	</g>
</g>
<g>
	<g>
		<path class="st0" d="M429.322,250.408c0.042-6.157,14.532-7.188,17.388-1.733c6.47,2.135,13.805,1.495,19.807-1.729
			c0.236,1.517,2.325,1.999,3.735,1.394c1.41-0.606,2.435-1.857,3.745-2.657c5.21-3.184,11.698,1.933,14.558,7.328
			c0.459,0.865,0.889,1.767,1.027,2.736c0.289,2.033-0.728,3.993-1.62,5.842c-4.438,9.207-6.417,19.586-5.679,29.781
			c0.425,5.871,1.317,12.857-3.202,16.63c1.604-0.022,2.498,1.999,2.211,3.578c-0.287,1.579-1.279,2.946-1.679,4.5
			c-0.68,2.638,0.41,5.364,0.823,8.056c1.682,10.968-7.913,21.448-5.881,32.357c0.665,3.568,2.547,6.828,3.153,10.406
			c2.145,12.656-11.886,24.007-9.419,36.604c13.374,2.791,27.106,3.865,40.751,3.186c2.697-0.134,5.512-0.316,7.987,0.764
			c5.328,2.327,6.282,10.888,1.597,14.33c-1.159,0.852-2.539,1.403-3.584,2.392c-1.16,1.097-1.801,2.629-2.283,4.152
			c-1.715,5.407-1.819,11.314-0.296,16.778c0.754,2.705,1.909,5.393,1.729,8.196c-0.228,3.566-2.548,6.589-4.406,9.641
			c-4.931,8.102-7.016,17.898-5.812,27.306c0.124,0.969,0.239,2.081-0.423,2.798c-0.387,0.419-0.96,0.601-1.506,0.767
			c-4.175,1.266-8.35,2.532-12.526,3.799c-4.156-3.055,1.141-9.643-0.034-14.666c-0.371-1.588-1.409-2.947-1.865-4.512
			c-0.885-3.04,0.532-6.203,1.339-9.264c1.74-6.599,0.248-14.39-5.044-18.699c-5.292-4.309-14.48-3.505-17.791,2.462
			c-1.924,3.467-1.638,7.733-2.971,11.467s-5.964,7.003-9.093,4.569c-1.167-6.783-2.334-13.567-3.501-20.35
			c-2.219-2.3-5.801-2.424-8.997-2.395c-4.409,0.039-9.772,0.67-11.549,4.706c-1.35,3.066,0.14,6.711-0.739,9.944
			c-1.414,5.205-7.832,6.878-13.17,7.649c-2.096-3.257-1.701-7.462-1.231-11.307c1.549-12.66,3.181-25.605,8.88-37.015
			c2.371-4.747,5.484-10.221,3.129-14.977c-0.999-2.019-2.837-3.466-4.347-5.137c-6.847-7.578-6.551-19.161-4.382-29.141
			c2.169-9.98,5.821-20.032,4.289-30.13c-0.447-2.945-1.334-5.844-1.341-8.823c-0.023-9.679,8.958-19.763,3.731-27.909
			c-0.758-1.182-1.814-2.282-1.947-3.68c-0.18-1.894,1.369-3.437,2.511-4.958c3.508-4.672,3.691-10.961,3.731-16.803
			C429.192,269.23,429.257,259.819,429.322,250.408z"/>
		<path class="st1" d="M429.322,250.408c0.042-6.157,14.532-7.188,17.388-1.733c6.47,2.135,13.805,1.495,19.807-1.729
			c0.236,1.517,2.325,1.999,3.735,1.394c1.41-0.606,2.435-1.857,3.745-2.657c5.21-3.184,11.698,1.933,14.558,7.328
			c0.459,0.865,0.889,1.767,1.027,2.736c0.289,2.033-0.728,3.993-1.62,5.842c-4.438,9.207-6.417,19.586-5.679,29.781
			c0.425,5.871,1.317,12.857-3.202,16.63c1.604-0.022,2.498,1.999,2.211,3.578c-0.287,1.579-1.279,2.946-1.679,4.5
			c-0.68,2.638,0.41,5.364,0.823,8.056c1.682,10.968-7.913,21.448-5.881,32.357c0.665,3.568,2.547,6.828,3.153,10.406
			c2.145,12.656-11.886,24.007-9.419,36.604c13.374,2.791,27.106,3.865,40.751,3.186c2.697-0.134,5.512-0.316,7.987,0.764
			c5.328,2.327,6.282,10.888,1.597,14.33c-1.159,0.852-2.539,1.403-3.584,2.392c-1.16,1.097-1.801,2.629-2.283,4.152
			c-1.715,5.407-1.819,11.314-0.296,16.778c0.754,2.705,1.909,5.393,1.729,8.196c-0.228,3.566-2.548,6.589-4.406,9.641
			c-4.931,8.102-7.016,17.898-5.812,27.306c0.124,0.969,0.239,2.081-0.423,2.798c-0.387,0.419-0.96,0.601-1.506,0.767
			c-4.175,1.266-8.35,2.532-12.526,3.799c-4.156-3.055,1.141-9.643-0.034-14.666c-0.371-1.588-1.409-2.947-1.865-4.512
			c-0.885-3.04,0.532-6.203,1.339-9.264c1.74-6.599,0.248-14.39-5.044-18.699c-5.292-4.309-14.48-3.505-17.791,2.462
			c-1.924,3.467-1.638,7.733-2.971,11.467s-5.964,7.003-9.093,4.569c-1.167-6.783-2.334-13.567-3.501-20.35
			c-2.219-2.3-5.801-2.424-8.997-2.395c-4.409,0.039-9.772,0.67-11.549,4.706c-1.35,3.066,0.14,6.711-0.739,9.944
			c-1.414,5.205-7.832,6.878-13.17,7.649c-2.096-3.257-1.701-7.462-1.231-11.307c1.549-12.66,3.181-25.605,8.88-37.015
			c2.371-4.747,5.484-10.221,3.129-14.977c-0.999-2.019-2.837-3.466-4.347-5.137c-6.847-7.578-6.551-19.161-4.382-29.141
			c2.169-9.98,5.821-20.032,4.289-30.13c-0.447-2.945-1.334-5.844-1.341-8.823c-0.023-9.679,8.958-19.763,3.731-27.909
			c-0.758-1.182-1.814-2.282-1.947-3.68c-0.18-1.894,1.369-3.437,2.511-4.958c3.508-4.672,3.691-10.961,3.731-16.803
			C429.192,269.23,429.257,259.819,429.322,250.408z"/>
	</g>
	<g>
		
			<linearGradient id="SVGID_00000158030863906686961360000007051429785472280222_" gradientUnits="userSpaceOnUse" x1="468.0697" y1="32.029" x2="468.0697" y2="397.9371">
			<stop  offset="6.260948e-04" style="stop-color:#85A0F2"/>
			<stop  offset="0.5" style="stop-color:#683FBF"/>
			<stop  offset="1" style="stop-color:#7C53CF"/>
		</linearGradient>
		<path style="fill:url(#SVGID_00000158030863906686961360000007051429785472280222_);" d="M429.322,220.408
			c0.042-6.157,14.532-7.188,17.388-1.733c6.47,2.135,13.805,1.495,19.807-1.729c0.236,1.517,2.325,1.999,3.735,1.394
			c1.41-0.606,2.435-1.857,3.745-2.657c5.21-3.184,11.698,1.933,14.558,7.328c0.459,0.865,0.889,1.767,1.027,2.736
			c0.289,2.033-0.728,3.993-1.62,5.842c-4.438,9.207-6.417,19.586-5.679,29.781c0.425,5.871,1.317,12.857-3.202,16.63
			c1.604-0.022,2.498,1.999,2.211,3.578c-0.287,1.579-1.279,2.946-1.679,4.5c-0.68,2.638,0.41,5.364,0.823,8.056
			c1.682,10.968-7.913,21.448-5.881,32.357c0.665,3.568,2.547,6.828,3.153,10.406c2.145,12.656-11.886,24.007-9.419,36.604
			c13.374,2.791,27.106,3.865,40.751,3.186c2.697-0.134,5.512-0.316,7.987,0.764c5.328,2.327,6.282,10.888,1.597,14.33
			c-1.159,0.852-2.539,1.403-3.584,2.392c-1.16,1.097-1.801,2.629-2.283,4.152c-1.715,5.407-1.819,11.314-0.296,16.778
			c0.754,2.705,1.909,5.393,1.729,8.196c-0.228,3.566-2.548,6.589-4.406,9.641c-4.931,8.102-7.016,17.898-5.812,27.306
			c0.124,0.969,0.239,2.081-0.423,2.798c-0.387,0.419-0.96,0.601-1.506,0.767c-4.175,1.266-8.35,2.532-12.526,3.799
			c-4.156-3.055,1.141-9.643-0.034-14.666c-0.371-1.588-1.409-2.947-1.865-4.512c-0.885-3.04,0.532-6.203,1.339-9.264
			c1.74-6.599,0.248-14.39-5.044-18.699c-5.292-4.309-14.48-3.505-17.791,2.462c-1.924,3.467-1.638,7.733-2.971,11.467
			s-5.964,7.003-9.093,4.569c-1.167-6.783-2.334-13.567-3.501-20.35c-2.219-2.3-5.801-2.424-8.997-2.395
			c-4.409,0.039-9.772,0.67-11.549,4.706c-1.35,3.066,0.14,6.711-0.739,9.944c-1.414,5.205-7.832,6.878-13.17,7.649
			c-2.096-3.257-1.701-7.462-1.231-11.307c1.549-12.66,3.181-25.605,8.88-37.015c2.371-4.747,5.484-10.221,3.129-14.977
			c-0.999-2.019-2.837-3.466-4.347-5.137c-6.847-7.578-6.551-19.161-4.382-29.141c2.169-9.98,5.821-20.032,4.289-30.13
			c-0.447-2.945-1.334-5.844-1.341-8.823c-0.023-9.679,8.958-19.763,3.731-27.909c-0.758-1.182-1.814-2.282-1.947-3.68
			c-0.18-1.894,1.369-3.437,2.511-4.958c3.508-4.672,3.691-10.961,3.731-16.803C429.192,239.23,429.257,229.819,429.322,220.408z"/>
		<path class="st1" d="M429.322,220.408c0.042-6.157,14.532-7.188,17.388-1.733c6.47,2.135,13.805,1.495,19.807-1.729
			c0.236,1.517,2.325,1.999,3.735,1.394c1.41-0.606,2.435-1.857,3.745-2.657c5.21-3.184,11.698,1.933,14.558,7.328
			c0.459,0.865,0.889,1.767,1.027,2.736c0.289,2.033-0.728,3.993-1.62,5.842c-4.438,9.207-6.417,19.586-5.679,29.781
			c0.425,5.871,1.317,12.857-3.202,16.63c1.604-0.022,2.498,1.999,2.211,3.578c-0.287,1.579-1.279,2.946-1.679,4.5
			c-0.68,2.638,0.41,5.364,0.823,8.056c1.682,10.968-7.913,21.448-5.881,32.357c0.665,3.568,2.547,6.828,3.153,10.406
			c2.145,12.656-11.886,24.007-9.419,36.604c13.374,2.791,27.106,3.865,40.751,3.186c2.697-0.134,5.512-0.316,7.987,0.764
			c5.328,2.327,6.282,10.888,1.597,14.33c-1.159,0.852-2.539,1.403-3.584,2.392c-1.16,1.097-1.801,2.629-2.283,4.152
			c-1.715,5.407-1.819,11.314-0.296,16.778c0.754,2.705,1.909,5.393,1.729,8.196c-0.228,3.566-2.548,6.589-4.406,9.641
			c-4.931,8.102-7.016,17.898-5.812,27.306c0.124,0.969,0.239,2.081-0.423,2.798c-0.387,0.419-0.96,0.601-1.506,0.767
			c-4.175,1.266-8.35,2.532-12.526,3.799c-4.156-3.055,1.141-9.643-0.034-14.666c-0.371-1.588-1.409-2.947-1.865-4.512
			c-0.885-3.04,0.532-6.203,1.339-9.264c1.74-6.599,0.248-14.39-5.044-18.699c-5.292-4.309-14.48-3.505-17.791,2.462
			c-1.924,3.467-1.638,7.733-2.971,11.467s-5.964,7.003-9.093,4.569c-1.167-6.783-2.334-13.567-3.501-20.35
			c-2.219-2.3-5.801-2.424-8.997-2.395c-4.409,0.039-9.772,0.67-11.549,4.706c-1.35,3.066,0.14,6.711-0.739,9.944
			c-1.414,5.205-7.832,6.878-13.17,7.649c-2.096-3.257-1.701-7.462-1.231-11.307c1.549-12.66,3.181-25.605,8.88-37.015
			c2.371-4.747,5.484-10.221,3.129-14.977c-0.999-2.019-2.837-3.466-4.347-5.137c-6.847-7.578-6.551-19.161-4.382-29.141
			c2.169-9.98,5.821-20.032,4.289-30.13c-0.447-2.945-1.334-5.844-1.341-8.823c-0.023-9.679,8.958-19.763,3.731-27.909
			c-0.758-1.182-1.814-2.282-1.947-3.68c-0.18-1.894,1.369-3.437,2.511-4.958c3.508-4.672,3.691-10.961,3.731-16.803
			C429.192,239.23,429.257,229.819,429.322,220.408z"/>
	</g>
</g>
<g>
	<g>
		<path class="st0" d="M325.072,244.638c-1.192-3.962,5.932-5.994,9.858-4.689c3.926,1.305,6.488,5.128,7.902,9.015
			c1.766-2.978,3.752-6.149,6.966-7.437c3.213-1.288,7.818,0.622,7.782,4.084c2.473-4.252,7.879-6.156,12.767-5.611
			c4.888,0.545,9.319,3.128,13.232,6.108c-2.515,4.233-3.467,9.371-2.636,14.224c0.777,4.536,3.035,9.2,1.451,13.522
			c-0.994,2.712-3.393,4.806-4.038,7.621c-1.252,5.464,4.572,10.742,3.242,16.188c-0.513,2.101-2.052,3.871-2.39,6.007
			c-0.525,3.307,1.899,6.267,3.017,9.423c2.026,5.718-0.299,11.943-2.191,17.707c-3.776,11.503-5.877,23.554-6.215,35.655
			c2.03-0.617,3.677,2,3.457,4.11c-0.219,2.11-1.43,4.043-1.508,6.163c-0.176,4.756,5.164,9.787,2.184,13.498
			c4.383,3.048,11.168,1.758,14.128-2.685c1.057,2.696,1.566,5.606,1.489,8.501c6.986,0.065,13.972,0.13,20.958,0.195
			c1.334,0.012,2.724,0.038,3.912,0.644c3.005,1.532,3.188,5.683,2.955,9.048c-0.566,8.181-1.132,16.363-1.698,24.544
			c-0.429,6.2-0.858,12.4-1.287,18.6c-0.213,3.078-0.428,6.17-1.097,9.182c-1.97,8.866-8.055,16.728-16.144,20.857
			c0.918-4.18,0.654-8.613-0.752-12.655c-0.881-2.534-2.21-4.957-2.497-7.624c-0.262-2.435,0.37-4.894,0.17-7.335
			c-0.628-7.662-8.856-12.272-16.352-13.98c-0.973-0.222-2.023-0.413-2.944-0.029c-1.06,0.441-1.688,1.531-2.13,2.589
			c-2.385,5.704-1.4,12.678,2.472,17.498c1.957,2.436,4.587,6.08,2.179,8.071c-1.109,0.917-2.745,0.749-4.13,0.358
			c-6.79-1.919-12.044-8.371-12.549-15.409c-0.346-4.832,0.727-11.011-3.505-13.369c-1.822-1.015-4.047-0.838-6.123-0.631
			c-3.111,0.309-6.223,0.619-9.334,0.928c-1.14,0.113-2.372,0.267-3.2,1.06c-1.417,1.357-0.885,3.663-0.712,5.617
			c0.596,6.698-5.379,13.235-12.103,13.242c-4.915-7.201-3.616-16.751-2.83-25.434c1.44-15.907,0.457-32.031-2.904-47.645
			c-1.301-6.043-2.824-12.864,0.618-17.998c2.228-3.322,6.452-5.834,6.374-9.833c-0.038-1.967-1.176-3.713-2.099-5.451
			c-3.26-6.142-4.106-13.527-2.319-20.247c1.162-4.368,3.406-8.778,2.368-13.178c-0.75-3.182-3.109-5.726-4.372-8.741
			c-1.823-4.351-1.235-9.291-0.537-13.956C326.46,278.216,329.949,260.849,325.072,244.638z"/>
		<path class="st1" d="M325.072,244.638c-1.192-3.962,5.932-5.994,9.858-4.689c3.926,1.305,6.488,5.128,7.902,9.015
			c1.766-2.978,3.752-6.149,6.966-7.437c3.213-1.288,7.818,0.622,7.782,4.084c2.473-4.252,7.879-6.156,12.767-5.611
			c4.888,0.545,9.319,3.128,13.232,6.108c-2.515,4.233-3.467,9.371-2.636,14.224c0.777,4.536,3.035,9.2,1.451,13.522
			c-0.994,2.712-3.393,4.806-4.038,7.621c-1.252,5.464,4.572,10.742,3.242,16.188c-0.513,2.101-2.052,3.871-2.39,6.007
			c-0.525,3.307,1.899,6.267,3.017,9.423c2.026,5.718-0.299,11.943-2.191,17.707c-3.776,11.503-5.877,23.554-6.215,35.655
			c2.03-0.617,3.677,2,3.457,4.11c-0.219,2.11-1.43,4.043-1.508,6.163c-0.176,4.756,5.164,9.787,2.184,13.498
			c4.383,3.048,11.168,1.758,14.128-2.685c1.057,2.696,1.566,5.606,1.489,8.501c6.986,0.065,13.972,0.13,20.958,0.195
			c1.334,0.012,2.724,0.038,3.912,0.644c3.005,1.532,3.188,5.683,2.955,9.048c-0.566,8.181-1.132,16.363-1.698,24.544
			c-0.429,6.2-0.858,12.4-1.287,18.6c-0.213,3.078-0.428,6.17-1.097,9.182c-1.97,8.866-8.055,16.728-16.144,20.857
			c0.918-4.18,0.654-8.613-0.752-12.655c-0.881-2.534-2.21-4.957-2.497-7.624c-0.262-2.435,0.37-4.894,0.17-7.335
			c-0.628-7.662-8.856-12.272-16.352-13.98c-0.973-0.222-2.023-0.413-2.944-0.029c-1.06,0.441-1.688,1.531-2.13,2.589
			c-2.385,5.704-1.4,12.678,2.472,17.498c1.957,2.436,4.587,6.08,2.179,8.071c-1.109,0.917-2.745,0.749-4.13,0.358
			c-6.79-1.919-12.044-8.371-12.549-15.409c-0.346-4.832,0.727-11.011-3.505-13.369c-1.822-1.015-4.047-0.838-6.123-0.631
			c-3.111,0.309-6.223,0.619-9.334,0.928c-1.14,0.113-2.372,0.267-3.2,1.06c-1.417,1.357-0.885,3.663-0.712,5.617
			c0.596,6.698-5.379,13.235-12.103,13.242c-4.915-7.201-3.616-16.751-2.83-25.434c1.44-15.907,0.457-32.031-2.904-47.645
			c-1.301-6.043-2.824-12.864,0.618-17.998c2.228-3.322,6.452-5.834,6.374-9.833c-0.038-1.967-1.176-3.713-2.099-5.451
			c-3.26-6.142-4.106-13.527-2.319-20.247c1.162-4.368,3.406-8.778,2.368-13.178c-0.75-3.182-3.109-5.726-4.372-8.741
			c-1.823-4.351-1.235-9.291-0.537-13.956C326.46,278.216,329.949,260.849,325.072,244.638z"/>
	</g>
	<g>
		
			<linearGradient id="SVGID_00000003825236623563690290000012615611072686004872_" gradientUnits="userSpaceOnUse" x1="371.9494" y1="32.029" x2="371.9494" y2="397.9371">
			<stop  offset="6.260948e-04" style="stop-color:#85A0F2"/>
			<stop  offset="0.5" style="stop-color:#683FBF"/>
			<stop  offset="1" style="stop-color:#7C53CF"/>
		</linearGradient>
		<path style="fill:url(#SVGID_00000003825236623563690290000012615611072686004872_);" d="M325.072,214.638
			c-1.192-3.962,5.932-5.994,9.858-4.689c3.926,1.305,6.488,5.128,7.902,9.015c1.766-2.978,3.752-6.149,6.966-7.437
			c3.213-1.288,7.818,0.622,7.782,4.084c2.473-4.252,7.879-6.156,12.767-5.611c4.888,0.545,9.319,3.128,13.232,6.108
			c-2.515,4.233-3.467,9.371-2.636,14.224c0.777,4.536,3.035,9.2,1.451,13.522c-0.994,2.712-3.393,4.806-4.038,7.621
			c-1.252,5.464,4.572,10.742,3.242,16.188c-0.513,2.101-2.052,3.871-2.39,6.007c-0.525,3.307,1.899,6.267,3.017,9.423
			c2.026,5.718-0.299,11.943-2.191,17.707c-3.776,11.503-5.877,23.554-6.215,35.655c2.03-0.617,3.677,2,3.457,4.11
			c-0.219,2.11-1.43,4.043-1.508,6.163c-0.176,4.756,5.164,9.787,2.184,13.498c4.383,3.048,11.168,1.758,14.128-2.685
			c1.057,2.696,1.566,5.606,1.489,8.501c6.986,0.065,13.972,0.13,20.958,0.195c1.334,0.012,2.724,0.038,3.912,0.644
			c3.005,1.532,3.188,5.683,2.955,9.048c-0.566,8.181-1.132,16.363-1.698,24.544c-0.429,6.2-0.858,12.4-1.287,18.6
			c-0.213,3.078-0.428,6.17-1.097,9.182c-1.97,8.866-8.055,16.728-16.144,20.857c0.918-4.18,0.654-8.613-0.752-12.655
			c-0.881-2.534-2.21-4.957-2.497-7.624c-0.262-2.435,0.37-4.894,0.17-7.335c-0.628-7.662-8.856-12.272-16.352-13.98
			c-0.973-0.222-2.023-0.413-2.944-0.029c-1.06,0.441-1.688,1.531-2.13,2.589c-2.385,5.704-1.4,12.678,2.472,17.498
			c1.957,2.436,4.587,6.08,2.179,8.071c-1.109,0.917-2.745,0.749-4.13,0.358c-6.79-1.919-12.044-8.371-12.549-15.409
			c-0.346-4.832,0.727-11.011-3.505-13.369c-1.822-1.015-4.047-0.838-6.123-0.631c-3.111,0.309-6.223,0.619-9.334,0.928
			c-1.14,0.113-2.372,0.267-3.2,1.06c-1.417,1.357-0.885,3.663-0.712,5.617c0.596,6.698-5.379,13.235-12.103,13.242
			c-4.915-7.201-3.616-16.751-2.83-25.434c1.44-15.907,0.457-32.031-2.904-47.645c-1.301-6.043-2.824-12.864,0.618-17.998
			c2.228-3.322,6.452-5.834,6.374-9.833c-0.038-1.967-1.176-3.713-2.099-5.451c-3.26-6.142-4.106-13.527-2.319-20.247
			c1.162-4.368,3.406-8.778,2.368-13.178c-0.75-3.182-3.109-5.726-4.372-8.741c-1.823-4.351-1.235-9.291-0.537-13.956
			C326.46,248.216,329.949,230.849,325.072,214.638z"/>
		<path class="st1" d="M325.072,214.638c-1.192-3.962,5.932-5.994,9.858-4.689c3.926,1.305,6.488,5.128,7.902,9.015
			c1.766-2.978,3.752-6.149,6.966-7.437c3.213-1.288,7.818,0.622,7.782,4.084c2.473-4.252,7.879-6.156,12.767-5.611
			c4.888,0.545,9.319,3.128,13.232,6.108c-2.515,4.233-3.467,9.371-2.636,14.224c0.777,4.536,3.035,9.2,1.451,13.522
			c-0.994,2.712-3.393,4.806-4.038,7.621c-1.252,5.464,4.572,10.742,3.242,16.188c-0.513,2.101-2.052,3.871-2.39,6.007
			c-0.525,3.307,1.899,6.267,3.017,9.423c2.026,5.718-0.299,11.943-2.191,17.707c-3.776,11.503-5.877,23.554-6.215,35.655
			c2.03-0.617,3.677,2,3.457,4.11c-0.219,2.11-1.43,4.043-1.508,6.163c-0.176,4.756,5.164,9.787,2.184,13.498
			c4.383,3.048,11.168,1.758,14.128-2.685c1.057,2.696,1.566,5.606,1.489,8.501c6.986,0.065,13.972,0.13,20.958,0.195
			c1.334,0.012,2.724,0.038,3.912,0.644c3.005,1.532,3.188,5.683,2.955,9.048c-0.566,8.181-1.132,16.363-1.698,24.544
			c-0.429,6.2-0.858,12.4-1.287,18.6c-0.213,3.078-0.428,6.17-1.097,9.182c-1.97,8.866-8.055,16.728-16.144,20.857
			c0.918-4.18,0.654-8.613-0.752-12.655c-0.881-2.534-2.21-4.957-2.497-7.624c-0.262-2.435,0.37-4.894,0.17-7.335
			c-0.628-7.662-8.856-12.272-16.352-13.98c-0.973-0.222-2.023-0.413-2.944-0.029c-1.06,0.441-1.688,1.531-2.13,2.589
			c-2.385,5.704-1.4,12.678,2.472,17.498c1.957,2.436,4.587,6.08,2.179,8.071c-1.109,0.917-2.745,0.749-4.13,0.358
			c-6.79-1.919-12.044-8.371-12.549-15.409c-0.346-4.832,0.727-11.011-3.505-13.369c-1.822-1.015-4.047-0.838-6.123-0.631
			c-3.111,0.309-6.223,0.619-9.334,0.928c-1.14,0.113-2.372,0.267-3.2,1.06c-1.417,1.357-0.885,3.663-0.712,5.617
			c0.596,6.698-5.379,13.235-12.103,13.242c-4.915-7.201-3.616-16.751-2.83-25.434c1.44-15.907,0.457-32.031-2.904-47.645
			c-1.301-6.043-2.824-12.864,0.618-17.998c2.228-3.322,6.452-5.834,6.374-9.833c-0.038-1.967-1.176-3.713-2.099-5.451
			c-3.26-6.142-4.106-13.527-2.319-20.247c1.162-4.368,3.406-8.778,2.368-13.178c-0.75-3.182-3.109-5.726-4.372-8.741
			c-1.823-4.351-1.235-9.291-0.537-13.956C326.46,248.216,329.949,230.849,325.072,214.638z"/>
	</g>
</g>
<g>
	<g>
		<path class="st0" d="M263.236,252.371c-0.829-3.64,0.541-7.071,3.967-8.554c3.426-1.483,8.36,1.169,7.807,4.861
			c2.121,0.021,3.588-1.991,5.055-3.522c1.467-1.532,4.152-2.668,5.524-1.05c0.477,0.563,0.662,1.356,1.23,1.826
			c1.325,1.097,3.168-0.346,4.483-1.454s4.015-1.415,4.14,0.3c4.861-2.018,9.722-4.035,14.583-6.053
			c1.591,0.952,2.714,2.648,2.972,4.484c1.053-1.988,3.175-3.367,5.42-3.521c-1.934,16.242-1.199,32.799,2.166,48.806
			c1.082,5.15,2.441,10.291,2.552,15.552c0.081,3.841-0.507,7.661-1.093,11.458c-1.471,9.527-2.941,19.053-4.412,28.58
			c-0.497,3.219-0.992,6.519-0.339,9.709c0.433,2.113,1.354,4.089,2.104,6.112c3.768,10.168,3.163,21.364,2.428,32.182
			c-0.992,14.589-2.131,29.168-3.415,43.733c-0.212,2.405-0.422,4.88,0.279,7.19c0.47,1.548,1.334,2.966,1.672,4.548
			c0.888,4.156-2.024,8.15-5.175,11.001c-3.151,2.851-6.87,5.427-8.456,9.369c-0.694,1.725-0.94,3.642-1.921,5.221
			s-3.13,2.706-4.709,1.724c-0.704-0.438-1.138-1.196-1.505-1.94c-2.068-4.195-2.926-8.979-2.443-13.631
			c0.428-4.128,1.882-8.241,1.2-12.335c-0.682-4.094-4.846-8.063-8.676-6.464c-1.665,0.695-2.8,2.241-4.273,3.283
			s-3.819,1.407-4.862-0.064c-0.274-0.386-0.415-0.848-0.547-1.303c-2.557-8.776-3.446-18.034-2.607-27.136
			c0.332-3.6,0.904-7.391-0.537-10.708c-0.884-2.035-2.457-3.7-3.424-5.696c-2.539-5.241-0.501-11.723-2.606-17.152
			c-0.657-1.693-1.712-3.269-1.93-5.072c-0.387-3.2,1.903-6.026,3.003-9.056c4.204-11.589-9.272-23.22-7.392-35.405
			c0.482-3.126,1.979-6.105,1.888-9.267c-0.076-2.66-1.272-5.152-1.745-7.771c-1.164-6.437,2.071-12.737,3.683-19.077
			c3.026-11.909,0.3-24.435-2.428-36.416C264.343,257.234,263.789,254.802,263.236,252.371z"/>
		<path class="st1" d="M263.236,252.371c-0.829-3.64,0.541-7.071,3.967-8.554c3.426-1.483,8.36,1.169,7.807,4.861
			c2.121,0.021,3.588-1.991,5.055-3.522c1.467-1.532,4.152-2.668,5.524-1.05c0.477,0.563,0.662,1.356,1.23,1.826
			c1.325,1.097,3.168-0.346,4.483-1.454s4.015-1.415,4.14,0.3c4.861-2.018,9.722-4.035,14.583-6.053
			c1.591,0.952,2.714,2.648,2.972,4.484c1.053-1.988,3.175-3.367,5.42-3.521c-1.934,16.242-1.199,32.799,2.166,48.806
			c1.082,5.15,2.441,10.291,2.552,15.552c0.081,3.841-0.507,7.661-1.093,11.458c-1.471,9.527-2.941,19.053-4.412,28.58
			c-0.497,3.219-0.992,6.519-0.339,9.709c0.433,2.113,1.354,4.089,2.104,6.112c3.768,10.168,3.163,21.364,2.428,32.182
			c-0.992,14.589-2.131,29.168-3.415,43.733c-0.212,2.405-0.422,4.88,0.279,7.19c0.47,1.548,1.334,2.966,1.672,4.548
			c0.888,4.156-2.024,8.15-5.175,11.001c-3.151,2.851-6.87,5.427-8.456,9.369c-0.694,1.725-0.94,3.642-1.921,5.221
			s-3.13,2.706-4.709,1.724c-0.704-0.438-1.138-1.196-1.505-1.94c-2.068-4.195-2.926-8.979-2.443-13.631
			c0.428-4.128,1.882-8.241,1.2-12.335c-0.682-4.094-4.846-8.063-8.676-6.464c-1.665,0.695-2.8,2.241-4.273,3.283
			s-3.819,1.407-4.862-0.064c-0.274-0.386-0.415-0.848-0.547-1.303c-2.557-8.776-3.446-18.034-2.607-27.136
			c0.332-3.6,0.904-7.391-0.537-10.708c-0.884-2.035-2.457-3.7-3.424-5.696c-2.539-5.241-0.501-11.723-2.606-17.152
			c-0.657-1.693-1.712-3.269-1.93-5.072c-0.387-3.2,1.903-6.026,3.003-9.056c4.204-11.589-9.272-23.22-7.392-35.405
			c0.482-3.126,1.979-6.105,1.888-9.267c-0.076-2.66-1.272-5.152-1.745-7.771c-1.164-6.437,2.071-12.737,3.683-19.077
			c3.026-11.909,0.3-24.435-2.428-36.416C264.343,257.234,263.789,254.802,263.236,252.371z"/>
	</g>
	<g>
		
			<linearGradient id="SVGID_00000079456448036878547260000015857461668502062230_" gradientUnits="userSpaceOnUse" x1="293.0719" y1="32.029" x2="293.0719" y2="397.9371">
			<stop  offset="6.260948e-04" style="stop-color:#85A0F2"/>
			<stop  offset="0.5" style="stop-color:#683FBF"/>
			<stop  offset="1" style="stop-color:#7C53CF"/>
		</linearGradient>
		<path style="fill:url(#SVGID_00000079456448036878547260000015857461668502062230_);" d="M263.236,222.371
			c-0.829-3.64,0.541-7.071,3.967-8.554c3.426-1.483,8.36,1.169,7.807,4.861c2.121,0.021,3.588-1.991,5.055-3.522
			c1.467-1.532,4.152-2.668,5.524-1.05c0.477,0.563,0.662,1.356,1.23,1.826c1.325,1.097,3.168-0.346,4.483-1.454
			s4.015-1.415,4.14,0.3c4.861-2.018,9.722-4.035,14.583-6.053c1.591,0.952,2.714,2.648,2.972,4.484
			c1.053-1.988,3.175-3.367,5.42-3.521c-1.934,16.242-1.199,32.799,2.166,48.806c1.082,5.15,2.441,10.291,2.552,15.552
			c0.081,3.841-0.507,7.661-1.093,11.458c-1.471,9.527-2.941,19.053-4.412,28.58c-0.497,3.219-0.992,6.519-0.339,9.709
			c0.433,2.113,1.354,4.089,2.104,6.112c3.768,10.168,3.163,21.364,2.428,32.182c-0.992,14.589-2.131,29.168-3.415,43.733
			c-0.212,2.405-0.422,4.88,0.279,7.19c0.47,1.548,1.334,2.966,1.672,4.548c0.888,4.156-2.024,8.15-5.175,11.001
			c-3.151,2.851-6.87,5.427-8.456,9.369c-0.694,1.725-0.94,3.642-1.921,5.221s-3.13,2.706-4.709,1.724
			c-0.704-0.438-1.138-1.196-1.505-1.94c-2.068-4.195-2.926-8.979-2.443-13.631c0.428-4.128,1.882-8.241,1.2-12.335
			c-0.682-4.094-4.846-8.063-8.676-6.464c-1.665,0.695-2.8,2.241-4.273,3.283s-3.819,1.407-4.862-0.064
			c-0.274-0.386-0.415-0.848-0.547-1.303c-2.557-8.776-3.446-18.034-2.607-27.136c0.332-3.6,0.904-7.391-0.537-10.708
			c-0.884-2.035-2.457-3.7-3.424-5.696c-2.539-5.241-0.501-11.723-2.606-17.152c-0.657-1.693-1.712-3.269-1.93-5.072
			c-0.387-3.2,1.903-6.026,3.003-9.056c4.204-11.589-9.272-23.22-7.392-35.405c0.482-3.126,1.979-6.105,1.888-9.267
			c-0.076-2.66-1.272-5.152-1.745-7.771c-1.164-6.437,2.071-12.737,3.683-19.077c3.026-11.909,0.3-24.435-2.428-36.416
			C264.343,227.234,263.789,224.802,263.236,222.371z"/>
		<path class="st1" d="M263.236,222.371c-0.829-3.64,0.541-7.071,3.967-8.554c3.426-1.483,8.36,1.169,7.807,4.861
			c2.121,0.021,3.588-1.991,5.055-3.522c1.467-1.532,4.152-2.668,5.524-1.05c0.477,0.563,0.662,1.356,1.23,1.826
			c1.325,1.097,3.168-0.346,4.483-1.454s4.015-1.415,4.14,0.3c4.861-2.018,9.722-4.035,14.583-6.053
			c1.591,0.952,2.714,2.648,2.972,4.484c1.053-1.988,3.175-3.367,5.42-3.521c-1.934,16.242-1.199,32.799,2.166,48.806
			c1.082,5.15,2.441,10.291,2.552,15.552c0.081,3.841-0.507,7.661-1.093,11.458c-1.471,9.527-2.941,19.053-4.412,28.58
			c-0.497,3.219-0.992,6.519-0.339,9.709c0.433,2.113,1.354,4.089,2.104,6.112c3.768,10.168,3.163,21.364,2.428,32.182
			c-0.992,14.589-2.131,29.168-3.415,43.733c-0.212,2.405-0.422,4.88,0.279,7.19c0.47,1.548,1.334,2.966,1.672,4.548
			c0.888,4.156-2.024,8.15-5.175,11.001c-3.151,2.851-6.87,5.427-8.456,9.369c-0.694,1.725-0.94,3.642-1.921,5.221
			s-3.13,2.706-4.709,1.724c-0.704-0.438-1.138-1.196-1.505-1.94c-2.068-4.195-2.926-8.979-2.443-13.631
			c0.428-4.128,1.882-8.241,1.2-12.335c-0.682-4.094-4.846-8.063-8.676-6.464c-1.665,0.695-2.8,2.241-4.273,3.283
			s-3.819,1.407-4.862-0.064c-0.274-0.386-0.415-0.848-0.547-1.303c-2.557-8.776-3.446-18.034-2.607-27.136
			c0.332-3.6,0.904-7.391-0.537-10.708c-0.884-2.035-2.457-3.7-3.424-5.696c-2.539-5.241-0.501-11.723-2.606-17.152
			c-0.657-1.693-1.712-3.269-1.93-5.072c-0.387-3.2,1.903-6.026,3.003-9.056c4.204-11.589-9.272-23.22-7.392-35.405
			c0.482-3.126,1.979-6.105,1.888-9.267c-0.076-2.66-1.272-5.152-1.745-7.771c-1.164-6.437,2.071-12.737,3.683-19.077
			c3.026-11.909,0.3-24.435-2.428-36.416C264.343,227.234,263.789,224.802,263.236,222.371z"/>
	</g>
</g>
<g>
	<g>
		<path class="st0" d="M5.576,281.385c-2.536-0.993,3.964-9.436,6.618-8.825c2.654,0.611,4.219,3.281,5.471,5.699
			c5.291-5.381,12.258-9.09,19.676-10.474c1.378,0.806,2.756,1.611,4.135,2.417c1.104-1.195,2.209-2.39,3.313-3.585
			c1.48,1.008,2.96,2.016,4.44,3.024c1.211-1.108,2.423-2.217,3.634-3.325c1.138,0.724,2.276,1.447,3.414,2.171
			c3.025-1.22,6.257-1.923,9.516-2.07c2.828,6.514,5.013,13.307,6.513,20.249c2.902,1.591,2.453,5.777,2.141,9.072
			c-0.608,6.423,0.951,13.032,4.367,18.506c5.895,1.543,9.71,7.603,10.521,13.642c0.811,6.039-0.772,12.115-2.34,18.003
			c5.573-2.061,11.608,3.074,13.132,8.817c1.524,5.743,0.047,11.786-0.651,17.686c-0.698,5.9-0.331,12.579,3.904,16.745
			c7.208-13.264,5.212-29.422,3.018-44.358c-1.573-10.707-3.146-21.415-4.72-32.122c-0.859-5.846-1.681-12.027,0.567-17.492
			c0.888-2.159,2.236-4.139,2.809-6.403c0.651-2.573,0.244-5.281-0.167-7.904c-0.929-5.936-1.858-11.872-2.787-17.809
			c3.767-2.593,9.487-1.73,12.322,1.859c2.401-1.211,4.802-2.422,7.203-3.632c5.281,1.667,11.593-1.23,13.771-6.321
			c1.302,0.98,2.604,1.961,3.906,2.941c7.24-2.418,14.479-4.836,21.719-7.254c2.259,4.573,1.692,10.405-1.405,14.458
			c2.887,3.466,5.774,6.931,8.662,10.397c1.266,1.52,2.552,3.072,3.292,4.906c1.405,3.481,0.667,7.483,1.714,11.088
			c1.047,3.604,5.708,6.708,8.406,4.098c1.079,3.788,0.028,8.109-2.67,10.979c2.501,7.112,5.003,14.225,7.504,21.337
			c1.354,3.851,2.712,7.714,3.583,11.703c1.066,4.888,1.409,9.985,3.333,14.602c2.682,6.435,8.244,13.924,3.833,19.323
			c2.294,1.344,4.588,2.689,6.882,4.033c0.127-4.116-0.183-8.232-0.443-12.342c-1.234-19.536-1.352-39.142-0.352-58.691
			c0.151-2.954,0.328-5.906,0.504-8.858c0.267-4.457,0.533-8.914,0.8-13.371c0.527-8.81,1.054-17.62,1.581-26.431
			c0.235-3.924,2.408-9.292,6.139-8.056c1.185,0.393,2.025,1.418,3.008,2.186c4.001,3.127,10.875,0.969,12.37-3.884
			c4.976,1.75,10.374,1.735,15.648,1.7c5.159-0.034,10.318-0.068,15.477-0.102c3.846,5.623-2.794,12.803-2.55,19.611
			c0.085,2.38,1.032,4.632,1.906,6.848c4.079,10.349,6.834,21.219,8.176,32.262c0.947,7.797,0.389,17.273-6.363,21.285
			c0.649-4.574-1.387-9.431-5.103-12.176c-7.694,17.212-6.637,38.076,2.757,54.423c2.652,4.615,6,9.094,6.668,14.375
			c0.668,5.281-2.819,11.581-8.141,11.462c-0.056-4.38-1.606-8.727-4.333-12.155c-7.745,4.648-9.133,15.399-7.603,24.301
			c1.53,8.902,5.112,17.68,4.087,26.654c-0.28,2.455-0.905,4.93-0.492,7.367c0.52,3.065,2.592,5.598,3.975,8.382
			c4.456,8.971,0.62,21.141-8.175,25.936c-4.872-8.487,0.978-21.406-6.325-27.921c-4.328-3.861-11.713-2.777-15.603,1.525
			s-4.533,10.88-2.681,16.376c1.878,5.575,5.914,10.099,9.477,14.78c3.563,4.681,6.85,10.049,6.785,15.931
			c-0.065,5.882-4.838,12.023-10.697,11.499c-5.684-0.509-9.15-6.477-10.777-11.947c-4.419-14.855-2.835-31.872-11.589-44.662
			c-1.508,3.787-5.542,6.413-9.616,6.257c-4.073-0.155-7.896-3.081-9.111-6.972c-1.256-4.023,0.131-8.336,0.334-12.546
			c0.65-13.542-10.62-24.286-16.488-36.508c-9.087-18.926-6.404-44.373-22.652-57.669c1.199,14.404,2.397,28.807,3.596,43.21
			c0.205,2.46,0.426,4.984,1.501,7.206c0.86,1.778,2.217,3.257,3.481,4.775c3.744,4.495,6.817,9.548,9.086,14.94
			c1.756,4.172,2.946,9.242,0.437,13.009c-2.51,3.768-9.972,3.238-10.219-1.282c-3.009,7.554-4.046,15.884-2.98,23.945
			c0.909,6.873,3.29,13.987,1.03,20.541c-1.749,5.072-6.025,8.894-8.18,13.807c-1.961,4.471-2.035,9.527-3.376,14.221
			c-1.342,4.694-4.713,9.485-9.582,9.849c1.152-8.866,2.304-17.732,3.456-26.599c0.339-2.608,0.622-5.475-0.83-7.667
			c-3.008-4.543-10.01-2.433-14.809,0.147c-2.685,1.444-5.472,2.978-7.201,5.489c-4.164,6.049-0.394,14.202,3.383,20.5
			c3.346,5.579,6.692,11.158,10.038,16.737c2.55,4.251,4.753,10.546,0.729,13.44c-3.231,2.323-7.991-0.052-10.007-3.483
			s-2.316-7.574-3.566-11.353c-3.358-10.147-13.261-16.958-17.11-26.929c-0.693-1.796-1.177-3.665-1.72-5.512
			c-0.709-2.41-1.522-4.788-2.35-7.16c-3.182-9.12-6.579-18.164-9.976-27.206c-0.4-1.064-0.799-2.127-1.199-3.191
			c-3.607-9.601-7.258-19.29-12.876-27.871c-0.932-1.423-1.97-2.862-3.466-3.673c-4.995-2.709-10.299,2.913-13.22,7.787
			c-5.266-5.131-6.854-13.664-3.787-20.345c1.556-3.389,4.179-6.336,4.943-9.986c1.233-5.896-2.652-11.475-5.748-16.641
			c-3.097-5.166-5.438-12.168-1.638-16.841c-3.732-2.469-7.747-4.97-12.22-5.104c-4.473-0.133-9.359,3.111-9.313,7.586
			c-6.996-5.74-7.769-17.565-1.579-24.167c1.365-1.455,3.009-2.687,4.033-4.4c3.444-5.763-1.62-12.602-4.106-18.838
			c-2.366-5.934-2.327-12.516-3.553-18.786S11.524,283.715,5.576,281.385z"/>
		<path class="st1" d="M5.576,281.385c-2.536-0.993,3.964-9.436,6.618-8.825c2.654,0.611,4.219,3.281,5.471,5.699
			c5.291-5.381,12.258-9.09,19.676-10.474c1.378,0.806,2.756,1.611,4.135,2.417c1.104-1.195,2.209-2.39,3.313-3.585
			c1.48,1.008,2.96,2.016,4.44,3.024c1.211-1.108,2.423-2.217,3.634-3.325c1.138,0.724,2.276,1.447,3.414,2.171
			c3.025-1.22,6.257-1.923,9.516-2.07c2.828,6.514,5.013,13.307,6.513,20.249c2.902,1.591,2.453,5.777,2.141,9.072
			c-0.608,6.423,0.951,13.032,4.367,18.506c5.895,1.543,9.71,7.603,10.521,13.642c0.811,6.039-0.772,12.115-2.34,18.003
			c5.573-2.061,11.608,3.074,13.132,8.817c1.524,5.743,0.047,11.786-0.651,17.686c-0.698,5.9-0.331,12.579,3.904,16.745
			c7.208-13.264,5.212-29.422,3.018-44.358c-1.573-10.707-3.146-21.415-4.72-32.122c-0.859-5.846-1.681-12.027,0.567-17.492
			c0.888-2.159,2.236-4.139,2.809-6.403c0.651-2.573,0.244-5.281-0.167-7.904c-0.929-5.936-1.858-11.872-2.787-17.809
			c3.767-2.593,9.487-1.73,12.322,1.859c2.401-1.211,4.802-2.422,7.203-3.632c5.281,1.667,11.593-1.23,13.771-6.321
			c1.302,0.98,2.604,1.961,3.906,2.941c7.24-2.418,14.479-4.836,21.719-7.254c2.259,4.573,1.692,10.405-1.405,14.458
			c2.887,3.466,5.774,6.931,8.662,10.397c1.266,1.52,2.552,3.072,3.292,4.906c1.405,3.481,0.667,7.483,1.714,11.088
			c1.047,3.604,5.708,6.708,8.406,4.098c1.079,3.788,0.028,8.109-2.67,10.979c2.501,7.112,5.003,14.225,7.504,21.337
			c1.354,3.851,2.712,7.714,3.583,11.703c1.066,4.888,1.409,9.985,3.333,14.602c2.682,6.435,8.244,13.924,3.833,19.323
			c2.294,1.344,4.588,2.689,6.882,4.033c0.127-4.116-0.183-8.232-0.443-12.342c-1.234-19.536-1.352-39.142-0.352-58.691
			c0.151-2.954,0.328-5.906,0.504-8.858c0.267-4.457,0.533-8.914,0.8-13.371c0.527-8.81,1.054-17.62,1.581-26.431
			c0.235-3.924,2.408-9.292,6.139-8.056c1.185,0.393,2.025,1.418,3.008,2.186c4.001,3.127,10.875,0.969,12.37-3.884
			c4.976,1.75,10.374,1.735,15.648,1.7c5.159-0.034,10.318-0.068,15.477-0.102c3.846,5.623-2.794,12.803-2.55,19.611
			c0.085,2.38,1.032,4.632,1.906,6.848c4.079,10.349,6.834,21.219,8.176,32.262c0.947,7.797,0.389,17.273-6.363,21.285
			c0.649-4.574-1.387-9.431-5.103-12.176c-7.694,17.212-6.637,38.076,2.757,54.423c2.652,4.615,6,9.094,6.668,14.375
			c0.668,5.281-2.819,11.581-8.141,11.462c-0.056-4.38-1.606-8.727-4.333-12.155c-7.745,4.648-9.133,15.399-7.603,24.301
			c1.53,8.902,5.112,17.68,4.087,26.654c-0.28,2.455-0.905,4.93-0.492,7.367c0.52,3.065,2.592,5.598,3.975,8.382
			c4.456,8.971,0.62,21.141-8.175,25.936c-4.872-8.487,0.978-21.406-6.325-27.921c-4.328-3.861-11.713-2.777-15.603,1.525
			s-4.533,10.88-2.681,16.376c1.878,5.575,5.914,10.099,9.477,14.78c3.563,4.681,6.85,10.049,6.785,15.931
			c-0.065,5.882-4.838,12.023-10.697,11.499c-5.684-0.509-9.15-6.477-10.777-11.947c-4.419-14.855-2.835-31.872-11.589-44.662
			c-1.508,3.787-5.542,6.413-9.616,6.257c-4.073-0.155-7.896-3.081-9.111-6.972c-1.256-4.023,0.131-8.336,0.334-12.546
			c0.65-13.542-10.62-24.286-16.488-36.508c-9.087-18.926-6.404-44.373-22.652-57.669c1.199,14.404,2.397,28.807,3.596,43.21
			c0.205,2.46,0.426,4.984,1.501,7.206c0.86,1.778,2.217,3.257,3.481,4.775c3.744,4.495,6.817,9.548,9.086,14.94
			c1.756,4.172,2.946,9.242,0.437,13.009c-2.51,3.768-9.972,3.238-10.219-1.282c-3.009,7.554-4.046,15.884-2.98,23.945
			c0.909,6.873,3.29,13.987,1.03,20.541c-1.749,5.072-6.025,8.894-8.18,13.807c-1.961,4.471-2.035,9.527-3.376,14.221
			c-1.342,4.694-4.713,9.485-9.582,9.849c1.152-8.866,2.304-17.732,3.456-26.599c0.339-2.608,0.622-5.475-0.83-7.667
			c-3.008-4.543-10.01-2.433-14.809,0.147c-2.685,1.444-5.472,2.978-7.201,5.489c-4.164,6.049-0.394,14.202,3.383,20.5
			c3.346,5.579,6.692,11.158,10.038,16.737c2.55,4.251,4.753,10.546,0.729,13.44c-3.231,2.323-7.991-0.052-10.007-3.483
			s-2.316-7.574-3.566-11.353c-3.358-10.147-13.261-16.958-17.11-26.929c-0.693-1.796-1.177-3.665-1.72-5.512
			c-0.709-2.41-1.522-4.788-2.35-7.16c-3.182-9.12-6.579-18.164-9.976-27.206c-0.4-1.064-0.799-2.127-1.199-3.191
			c-3.607-9.601-7.258-19.29-12.876-27.871c-0.932-1.423-1.97-2.862-3.466-3.673c-4.995-2.709-10.299,2.913-13.22,7.787
			c-5.266-5.131-6.854-13.664-3.787-20.345c1.556-3.389,4.179-6.336,4.943-9.986c1.233-5.896-2.652-11.475-5.748-16.641
			c-3.097-5.166-5.438-12.168-1.638-16.841c-3.732-2.469-7.747-4.97-12.22-5.104c-4.473-0.133-9.359,3.111-9.313,7.586
			c-6.996-5.74-7.769-17.565-1.579-24.167c1.365-1.455,3.009-2.687,4.033-4.4c3.444-5.763-1.62-12.602-4.106-18.838
			c-2.366-5.934-2.327-12.516-3.553-18.786S11.524,283.715,5.576,281.385z"/>
	</g>
	<g>
		
			<linearGradient id="SVGID_00000123427929184694365640000000423599577454709177_" gradientUnits="userSpaceOnUse" x1="135.8888" y1="32.029" x2="135.8888" y2="397.9371">
			<stop  offset="6.260948e-04" style="stop-color:#85A0F2"/>
			<stop  offset="0.5" style="stop-color:#683FBF"/>
			<stop  offset="1" style="stop-color:#7C53CF"/>
		</linearGradient>
		<path style="fill:url(#SVGID_00000123427929184694365640000000423599577454709177_);" d="M5.576,251.385
			c-2.536-0.993,3.964-9.436,6.618-8.825s4.219,3.281,5.471,5.699c5.291-5.381,12.258-9.09,19.676-10.474
			c1.378,0.806,2.756,1.611,4.135,2.417c1.104-1.195,2.209-2.39,3.313-3.585c1.48,1.008,2.96,2.016,4.44,3.024
			c1.211-1.108,2.423-2.217,3.634-3.325c1.138,0.724,2.276,1.447,3.414,2.171c3.025-1.22,6.257-1.923,9.516-2.07
			c2.828,6.514,5.013,13.307,6.513,20.249c2.902,1.591,2.453,5.777,2.141,9.072c-0.608,6.423,0.951,13.032,4.367,18.506
			c5.895,1.543,9.71,7.603,10.521,13.642c0.811,6.039-0.772,12.115-2.34,18.003c5.573-2.061,11.608,3.074,13.132,8.817
			c1.524,5.743,0.047,11.786-0.651,17.686c-0.698,5.9-0.331,12.579,3.904,16.745c7.208-13.264,5.212-29.422,3.018-44.358
			c-1.573-10.707-3.146-21.415-4.72-32.122c-0.859-5.846-1.681-12.027,0.567-17.492c0.888-2.159,2.236-4.139,2.809-6.403
			c0.651-2.573,0.244-5.281-0.167-7.904c-0.929-5.936-1.858-11.872-2.787-17.809c3.767-2.593,9.487-1.73,12.322,1.859
			c2.401-1.211,4.802-2.422,7.203-3.632c5.281,1.667,11.593-1.23,13.771-6.321c1.302,0.98,2.604,1.961,3.906,2.941
			c7.24-2.418,14.479-4.836,21.719-7.254c2.259,4.573,1.692,10.405-1.405,14.458c2.887,3.466,5.774,6.931,8.662,10.397
			c1.266,1.52,2.552,3.072,3.292,4.906c1.405,3.481,0.667,7.483,1.714,11.088c1.047,3.604,5.708,6.708,8.406,4.098
			c1.079,3.788,0.028,8.109-2.67,10.979c2.501,7.112,5.003,14.225,7.504,21.337c1.354,3.851,2.712,7.714,3.583,11.703
			c1.066,4.888,1.409,9.985,3.333,14.602c2.682,6.435,8.244,13.924,3.833,19.323c2.294,1.344,4.588,2.689,6.882,4.033
			c0.127-4.116-0.183-8.232-0.443-12.342c-1.234-19.536-1.352-39.142-0.352-58.691c0.151-2.954,0.328-5.906,0.504-8.858
			c0.267-4.457,0.533-8.914,0.8-13.371c0.527-8.81,1.054-17.62,1.581-26.431c0.235-3.924,2.408-9.292,6.139-8.056
			c1.185,0.393,2.025,1.418,3.008,2.186c4.001,3.127,10.875,0.969,12.37-3.884c4.976,1.75,10.374,1.735,15.648,1.7
			c5.159-0.034,10.318-0.068,15.477-0.102c3.846,5.623-2.794,12.803-2.55,19.611c0.085,2.38,1.032,4.632,1.906,6.848
			c4.079,10.349,6.834,21.219,8.176,32.262c0.947,7.797,0.389,17.273-6.363,21.285c0.649-4.574-1.387-9.431-5.103-12.176
			c-7.694,17.212-6.637,38.076,2.757,54.423c2.652,4.615,6,9.094,6.668,14.375c0.668,5.281-2.819,11.581-8.141,11.462
			c-0.056-4.38-1.606-8.727-4.333-12.155c-7.745,4.648-9.133,15.399-7.603,24.301c1.53,8.902,5.112,17.68,4.087,26.654
			c-0.28,2.455-0.905,4.93-0.492,7.367c0.52,3.065,2.592,5.598,3.975,8.382c4.456,8.971,0.62,21.141-8.175,25.936
			c-4.872-8.487,0.978-21.406-6.325-27.921c-4.328-3.861-11.713-2.777-15.603,1.525s-4.533,10.88-2.681,16.376
			c1.878,5.575,5.914,10.099,9.477,14.78c3.563,4.681,6.85,10.049,6.785,15.931c-0.065,5.882-4.838,12.023-10.697,11.499
			c-5.684-0.509-9.15-6.477-10.777-11.947c-4.419-14.855-2.835-31.872-11.589-44.662c-1.508,3.787-5.542,6.413-9.616,6.257
			c-4.073-0.155-7.896-3.081-9.111-6.972c-1.256-4.023,0.131-8.336,0.334-12.546c0.65-13.542-10.62-24.286-16.488-36.508
			c-9.087-18.926-6.404-44.373-22.652-57.669c1.199,14.404,2.397,28.807,3.596,43.21c0.205,2.46,0.426,4.984,1.501,7.206
			c0.86,1.778,2.217,3.257,3.481,4.775c3.744,4.495,6.817,9.548,9.086,14.94c1.756,4.172,2.946,9.242,0.437,13.009
			c-2.51,3.768-9.972,3.238-10.219-1.282c-3.009,7.554-4.046,15.884-2.98,23.945c0.909,6.873,3.29,13.987,1.03,20.541
			c-1.749,5.072-6.025,8.894-8.18,13.807c-1.961,4.471-2.035,9.527-3.376,14.221c-1.342,4.694-4.713,9.485-9.582,9.849
			c1.152-8.866,2.304-17.732,3.456-26.599c0.339-2.608,0.622-5.475-0.83-7.667c-3.008-4.543-10.01-2.433-14.809,0.147
			c-2.685,1.444-5.472,2.978-7.201,5.489c-4.164,6.049-0.394,14.202,3.383,20.5c3.346,5.579,6.692,11.158,10.038,16.737
			c2.55,4.251,4.753,10.546,0.729,13.44c-3.231,2.323-7.991-0.052-10.007-3.483s-2.316-7.574-3.566-11.353
			c-3.358-10.147-13.261-16.958-17.11-26.929c-0.693-1.796-1.177-3.665-1.72-5.512c-0.709-2.41-1.522-4.788-2.35-7.16
			c-3.182-9.12-6.579-18.164-9.976-27.206c-0.4-1.064-0.799-2.127-1.199-3.191c-3.607-9.601-7.258-19.29-12.876-27.871
			c-0.932-1.423-1.97-2.862-3.466-3.673c-4.995-2.709-10.299,2.913-13.22,7.787c-5.266-5.131-6.854-13.664-3.787-20.345
			c1.556-3.389,4.179-6.336,4.943-9.986c1.233-5.896-2.652-11.475-5.748-16.641c-3.097-5.166-5.438-12.168-1.638-16.841
			c-3.732-2.469-7.747-4.97-12.22-5.104c-4.473-0.133-9.359,3.111-9.313,7.586c-6.996-5.74-7.769-17.565-1.579-24.167
			c1.365-1.455,3.009-2.687,4.033-4.4c3.444-5.763-1.62-12.602-4.106-18.838c-2.366-5.934-2.327-12.516-3.553-18.786
			S11.524,253.715,5.576,251.385z"/>
		<path class="st1" d="M5.576,251.385c-2.536-0.993,3.964-9.436,6.618-8.825s4.219,3.281,5.471,5.699
			c5.291-5.381,12.258-9.09,19.676-10.474c1.378,0.806,2.756,1.611,4.135,2.417c1.104-1.195,2.209-2.39,3.313-3.585
			c1.48,1.008,2.96,2.016,4.44,3.024c1.211-1.108,2.423-2.217,3.634-3.325c1.138,0.724,2.276,1.447,3.414,2.171
			c3.025-1.22,6.257-1.923,9.516-2.07c2.828,6.514,5.013,13.307,6.513,20.249c2.902,1.591,2.453,5.777,2.141,9.072
			c-0.608,6.423,0.951,13.032,4.367,18.506c5.895,1.543,9.71,7.603,10.521,13.642c0.811,6.039-0.772,12.115-2.34,18.003
			c5.573-2.061,11.608,3.074,13.132,8.817c1.524,5.743,0.047,11.786-0.651,17.686c-0.698,5.9-0.331,12.579,3.904,16.745
			c7.208-13.264,5.212-29.422,3.018-44.358c-1.573-10.707-3.146-21.415-4.72-32.122c-0.859-5.846-1.681-12.027,0.567-17.492
			c0.888-2.159,2.236-4.139,2.809-6.403c0.651-2.573,0.244-5.281-0.167-7.904c-0.929-5.936-1.858-11.872-2.787-17.809
			c3.767-2.593,9.487-1.73,12.322,1.859c2.401-1.211,4.802-2.422,7.203-3.632c5.281,1.667,11.593-1.23,13.771-6.321
			c1.302,0.98,2.604,1.961,3.906,2.941c7.24-2.418,14.479-4.836,21.719-7.254c2.259,4.573,1.692,10.405-1.405,14.458
			c2.887,3.466,5.774,6.931,8.662,10.397c1.266,1.52,2.552,3.072,3.292,4.906c1.405,3.481,0.667,7.483,1.714,11.088
			c1.047,3.604,5.708,6.708,8.406,4.098c1.079,3.788,0.028,8.109-2.67,10.979c2.501,7.112,5.003,14.225,7.504,21.337
			c1.354,3.851,2.712,7.714,3.583,11.703c1.066,4.888,1.409,9.985,3.333,14.602c2.682,6.435,8.244,13.924,3.833,19.323
			c2.294,1.344,4.588,2.689,6.882,4.033c0.127-4.116-0.183-8.232-0.443-12.342c-1.234-19.536-1.352-39.142-0.352-58.691
			c0.151-2.954,0.328-5.906,0.504-8.858c0.267-4.457,0.533-8.914,0.8-13.371c0.527-8.81,1.054-17.62,1.581-26.431
			c0.235-3.924,2.408-9.292,6.139-8.056c1.185,0.393,2.025,1.418,3.008,2.186c4.001,3.127,10.875,0.969,12.37-3.884
			c4.976,1.75,10.374,1.735,15.648,1.7c5.159-0.034,10.318-0.068,15.477-0.102c3.846,5.623-2.794,12.803-2.55,19.611
			c0.085,2.38,1.032,4.632,1.906,6.848c4.079,10.349,6.834,21.219,8.176,32.262c0.947,7.797,0.389,17.273-6.363,21.285
			c0.649-4.574-1.387-9.431-5.103-12.176c-7.694,17.212-6.637,38.076,2.757,54.423c2.652,4.615,6,9.094,6.668,14.375
			c0.668,5.281-2.819,11.581-8.141,11.462c-0.056-4.38-1.606-8.727-4.333-12.155c-7.745,4.648-9.133,15.399-7.603,24.301
			c1.53,8.902,5.112,17.68,4.087,26.654c-0.28,2.455-0.905,4.93-0.492,7.367c0.52,3.065,2.592,5.598,3.975,8.382
			c4.456,8.971,0.62,21.141-8.175,25.936c-4.872-8.487,0.978-21.406-6.325-27.921c-4.328-3.861-11.713-2.777-15.603,1.525
			s-4.533,10.88-2.681,16.376c1.878,5.575,5.914,10.099,9.477,14.78c3.563,4.681,6.85,10.049,6.785,15.931
			c-0.065,5.882-4.838,12.023-10.697,11.499c-5.684-0.509-9.15-6.477-10.777-11.947c-4.419-14.855-2.835-31.872-11.589-44.662
			c-1.508,3.787-5.542,6.413-9.616,6.257c-4.073-0.155-7.896-3.081-9.111-6.972c-1.256-4.023,0.131-8.336,0.334-12.546
			c0.65-13.542-10.62-24.286-16.488-36.508c-9.087-18.926-6.404-44.373-22.652-57.669c1.199,14.404,2.397,28.807,3.596,43.21
			c0.205,2.46,0.426,4.984,1.501,7.206c0.86,1.778,2.217,3.257,3.481,4.775c3.744,4.495,6.817,9.548,9.086,14.94
			c1.756,4.172,2.946,9.242,0.437,13.009c-2.51,3.768-9.972,3.238-10.219-1.282c-3.009,7.554-4.046,15.884-2.98,23.945
			c0.909,6.873,3.29,13.987,1.03,20.541c-1.749,5.072-6.025,8.894-8.18,13.807c-1.961,4.471-2.035,9.527-3.376,14.221
			c-1.342,4.694-4.713,9.485-9.582,9.849c1.152-8.866,2.304-17.732,3.456-26.599c0.339-2.608,0.622-5.475-0.83-7.667
			c-3.008-4.543-10.01-2.433-14.809,0.147c-2.685,1.444-5.472,2.978-7.201,5.489c-4.164,6.049-0.394,14.202,3.383,20.5
			c3.346,5.579,6.692,11.158,10.038,16.737c2.55,4.251,4.753,10.546,0.729,13.44c-3.231,2.323-7.991-0.052-10.007-3.483
			s-2.316-7.574-3.566-11.353c-3.358-10.147-13.261-16.958-17.11-26.929c-0.693-1.796-1.177-3.665-1.72-5.512
			c-0.709-2.41-1.522-4.788-2.35-7.16c-3.182-9.12-6.579-18.164-9.976-27.206c-0.4-1.064-0.799-2.127-1.199-3.191
			c-3.607-9.601-7.258-19.29-12.876-27.871c-0.932-1.423-1.97-2.862-3.466-3.673c-4.995-2.709-10.299,2.913-13.22,7.787
			c-5.266-5.131-6.854-13.664-3.787-20.345c1.556-3.389,4.179-6.336,4.943-9.986c1.233-5.896-2.652-11.475-5.748-16.641
			c-3.097-5.166-5.438-12.168-1.638-16.841c-3.732-2.469-7.747-4.97-12.22-5.104c-4.473-0.133-9.359,3.111-9.313,7.586
			c-6.996-5.74-7.769-17.565-1.579-24.167c1.365-1.455,3.009-2.687,4.033-4.4c3.444-5.763-1.62-12.602-4.106-18.838
			c-2.366-5.934-2.327-12.516-3.553-18.786S11.524,253.715,5.576,251.385z"/>
	</g>
</g>
</svg>